<?xml version="1.0" encoding="utf-8"?>
<!-- Generator: Adobe Illustrator 23.1.0, SVG Export Plug-In . SVG Version: 6.00 Build 0)  -->
<svg version="1.1" xmlns="http://www.w3.org/2000/svg" xmlns:xlink="http://www.w3.org/1999/xlink" x="0px" y="0px"
	 viewBox="0 0 5442.52 3061.42" style="enable-background:new 0 0 5442.52 3061.42;" xml:space="preserve">
<style type="text/css">
	.st0{fill:none;stroke:#FF7C24;stroke-width:23;stroke-miterlimit:10;}
	.st1{fill:none;stroke:#FF7C24;stroke-width:10;stroke-miterlimit:10;}
	.st2{fill:#565656;}
	.st3{fill:none;stroke:#565656;stroke-width:11;stroke-miterlimit:10;}
	.st4{fill:#565656;stroke:#565656;stroke-width:11;stroke-miterlimit:10;}
	.st5{fill:#565656;stroke:#565656;stroke-width:8;stroke-miterlimit:10;}
	.st6{fill:none;stroke:#FF7C24;stroke-width:9;stroke-miterlimit:10;}
	.st7{fill:none;stroke:#FF7C24;stroke-width:5;stroke-miterlimit:10;}
	.st8{fill:#565656;stroke:#565656;stroke-width:5;stroke-miterlimit:10;}
</style>
<g id="Слой_5">
	<path class="st0" d="M4140.64,2918.93l-500.03-780.85c-48.05-47.64-252.74-399.77-586.77-865.7
		c-141.33-197.14-453.49-205.31-575.24-284.79l-821.48,518.74c-62.37,44.29-174.64,174.03-309.17,192.94
		c-177.45,24.94-471.69,116.79-664.16,100.35c-232.71-19.88-367.46-236.34-487.5-375.37"/>
	<g id="Слой_4">
		<polyline class="st1" points="2541.67,838.05 2474.12,910.72 2455.41,966.85 2366.97,893.71 2229.2,909.02 2123.76,958.34 
			2006.4,1048.48 		"/>
		<polyline class="st1" points="2116.95,789.96 1955.38,900.51 1853.33,1038.28 1363.5,1281.49 1263.16,1354.63 887.28,1427.76 
			909.39,1776.42 		"/>
		<path class="st1" d="M758.02,1790.03l-24.44-316.07c-0.61-7.94,4.76-15.1,12.56-16.73l141.14-29.47"/>
		<path class="st1" d="M267.2,1147.26c13.68,6.4,39.61,21.1,52.32,49.75c11.22,25.28,6.76,49.3-0.7,86.74
			c-10.69,53.63-24.65,62.33-28.03,100.12c-3.39,37.88,7.2,67.45,12.93,83.45c11.52,32.17,33.93,67.88,160.31,156.08
			c96.07,67.04,145.18,100.76,198.1,110.46c70.96,13.01,141.79,0.32,146.28-0.51c45.19-8.44,66.88-20.82,117.57-26.26
			c41.42-4.44,70.99-9.33,103.73,2.54c18.06,6.55,41.25,32,50.22,38.91"/>
		
			<rect x="317.52" y="1117.65" transform="matrix(0.7557 0.6549 -0.6549 0.7557 831.918 30.0882)" class="st2" width="116.22" height="24.94"/>
		
			<rect x="332.83" y="1134.09" transform="matrix(0.6265 -0.7794 0.7794 0.6265 -762.2612 703.5314)" class="st2" width="40.25" height="26.08"/>
		
			<rect x="359.47" y="1202.12" transform="matrix(0.599 -0.8008 0.8008 0.599 -832.3067 785.3925)" class="st2" width="17.01" height="43.09"/>
		
			<rect x="361.17" y="1329.68" transform="matrix(0.7071 -0.7071 0.7071 0.7071 -833.3708 659.8978)" class="st2" width="37.42" height="12.47"/>
		
			<rect x="381.02" y="1352.92" transform="matrix(0.6276 0.7786 -0.7786 0.6276 1222.8143 195.4672)" class="st2" width="52.16" height="45.92"/>
		
			<rect x="422.97" y="1427.19" transform="matrix(0.866 -0.5 0.5 0.866 -665.7971 408.7136)" class="st2" width="13.61" height="39.12"/>
		
			<rect x="409.76" y="1462.94" transform="matrix(0.6119 0.791 -0.791 0.6119 1348.9507 236.9797)" class="st2" width="46.49" height="60.09"/>
		<rect x="566.4" y="1575.16" class="st2" width="16.44" height="76.54"/>
		<rect x="589.65" y="1597.27" class="st2" width="49.32" height="20.98"/>
		<rect x="631.03" y="1583.1" class="st2" width="83.34" height="28.91"/>
		<rect x="696.23" y="1479.92" class="st2" width="24.94" height="104.31"/>
		<rect x="689.99" y="1407.92" class="st2" width="30.05" height="74.83"/>
		<rect x="608.35" y="1380.7" class="st2" width="95.24" height="30.05"/>
		<rect x="549.39" y="1397.14" class="st2" width="62.36" height="21.54"/>
		<rect x="640.1" y="1446.47" class="st2" width="14.74" height="15.87"/>
		<rect x="644.07" y="1516.2" class="st2" width="24.94" height="28.91"/>
		<rect x="534.95" y="1418.36" class="st2" width="30.05" height="38.55"/>
		<rect x="538.62" y="1452.7" class="st2" width="20.41" height="52.16"/>
		<rect x="569.8" y="1236.14" class="st2" width="49.32" height="58.39"/>
		<rect x="581.71" y="1212.33" class="st2" width="36.85" height="24.38"/>
		<rect x="609.49" y="1195.89" class="st2" width="28.91" height="26.65"/>
		<rect x="574.34" y="1123.32" class="st2" width="14.17" height="40.25"/>
		<rect x="612.32" y="1125.59" class="st2" width="72.57" height="29.48"/>
		<rect x="663.05" y="1155.2" class="st2" width="22.11" height="55.56"/>
		<rect x="654.28" y="1208.36" class="st2" width="31.18" height="59.53"/>
		<rect x="715.5" y="1191.35" class="st2" width="24.38" height="22.68"/>
		<rect x="714.94" y="1304.17" class="st2" width="17.01" height="33.45"/>
		<rect x="758.02" y="1316.64" class="st2" width="14.17" height="26.08"/>
		<rect x="764.83" y="1376.74" class="st2" width="14.17" height="48.76"/>
		<rect x="749.52" y="1426.06" class="st2" width="17.01" height="10.77"/>
		<rect x="803.38" y="1296.23" class="st2" width="40.25" height="24.94"/>
		<rect x="813.58" y="1386.37" class="st2" width="38.55" height="31.75"/>
		<rect x="816.88" y="1317.21" class="st2" width="17.68" height="72"/>
		<rect x="899.57" y="1371.82" class="st2" width="38.17" height="20.03"/>
		<rect x="892.76" y="1259.95" class="st2" width="21.54" height="113.76"/>
		<rect x="912.04" y="1254.28" class="st2" width="94.87" height="14.74"/>
		<rect x="1003.5" y="1212.7" class="st2" width="11.34" height="56.31"/>
		<rect x="979.31" y="1313.62" class="st2" width="10.58" height="12.85"/>
		<rect x="1007.28" y="1304.55" class="st2" width="10.58" height="11.34"/>
		<rect x="1036.76" y="1301.52" class="st2" width="9.45" height="12.09"/>
		<rect x="1057.55" y="1290.94" class="st2" width="12.85" height="23.06"/>
		
			<rect x="1162.81" y="943.03" transform="matrix(0.5351 -0.8448 0.8448 0.5351 -271.636 1450.8749)" class="st2" width="39.12" height="58.39"/>
		
			<rect x="1233.68" y="1102.91" transform="matrix(0.8931 -0.4498 0.4498 0.8931 -383.5128 689.7389)" class="st2" width="52.16" height="98.08"/>
		
			<rect x="1268.39" y="1087.3" transform="matrix(0.866 -0.5 0.5 0.866 -382.8268 790.6631)" class="st2" width="31.18" height="44.79"/>
		<rect x="1040.92" y="1111.41" class="st2" width="113.95" height="23.24"/>
		<rect x="1026.75" y="1123.32" class="st2" width="22.11" height="37.42"/>
		<rect x="1073.8" y="1181.14" class="st2" width="9.07" height="26.65"/>
		<rect x="1147.5" y="1128.42" class="st2" width="28.91" height="185.95"/>
		<rect x="1112.92" y="1305.3" class="st2" width="53.86" height="30.05"/>
		
			<rect x="1168.76" y="1025.52" transform="matrix(0.74 0.6726 -0.6726 0.74 1008.425 -521.2993)" class="st2" width="19.56" height="36.57"/>
		
			<rect x="1145.38" y="1005.11" transform="matrix(0.74 0.6726 -0.6726 0.74 988.6185 -510.8764)" class="st2" width="19.56" height="36.57"/>
		
			<rect x="1117.31" y="988.96" transform="matrix(0.74 0.6726 -0.6726 0.74 970.4559 -496.2024)" class="st2" width="19.56" height="36.57"/>
		<rect x="1406.02" y="1006.72" class="st2" width="12.85" height="17.39"/>
		
			<rect x="1354.43" y="1083.07" transform="matrix(0.866 -0.5 0.5 0.866 -372.9019 836.2388)" class="st2" width="39.12" height="61.8"/>
		
			<rect x="1313.05" y="1140.89" transform="matrix(0.866 -0.5 0.5 0.866 -396.165 826.5218)" class="st2" width="62.36" height="23.24"/>
		
			<rect x="1238.21" y="1218" transform="matrix(0.8476 -0.5307 0.5307 0.8476 -451.4566 898.3593)" class="st2" width="199.56" height="34.02"/>
		<rect x="1497.3" y="1096.67" class="st2" width="16.44" height="36.85"/>
		<rect x="1523.94" y="1089.87" class="st2" width="22.11" height="30.61"/>
		<rect x="1553.43" y="1071.16" class="st2" width="20.98" height="43.09"/>
		<rect x="1530.75" y="1131.82" class="st2" width="24.38" height="44.22"/>
		
			<rect x="1443.44" y="1029.77" transform="matrix(0.866 -0.5 0.5 0.866 -320.9006 889.1447)" class="st2" width="110.55" height="27.21"/>
		
			<rect x="1454.21" y="1056.42" transform="matrix(0.8452 -0.5345 0.5345 0.8452 -371.8514 958.4532)" class="st2" width="28.35" height="129.26"/>
		
			<rect x="1605.02" y="936.23" transform="matrix(0.866 -0.5 0.5 0.866 -253.9314 938.9514)" class="st2" width="40.25" height="14.17"/>
		<rect x="832.29" y="1517.9" class="st2" width="26.65" height="52.16"/>
		<rect x="772.2" y="1520.74" class="st2" width="19.84" height="71.43"/>
		<rect x="784.67" y="1562.12" class="st2" width="62.93" height="27.21"/>
		<rect x="782.97" y="1636.39" class="st2" width="78.24" height="31.18"/>
		<rect x="787.5" y="1626.18" class="st2" width="22.11" height="10.77"/>
		
			<rect x="1055.66" y="1490.69" transform="matrix(0.9591 -0.2829 0.2829 0.9591 -378.997 380.7519)" class="st2" width="146.27" height="23.81"/>
		
			<rect x="918.26" y="1538.66" transform="matrix(0.9901 -0.1404 0.1404 0.9901 -207.9091 153.594)" class="st2" width="133.09" height="23.81"/>
		<rect x="917.9" y="1462.63" class="st2" width="22.96" height="85.89"/>
		<rect x="1050.56" y="1443.07" class="st2" width="10.2" height="28.06"/>
		<rect x="1176.72" y="1443.92" class="st2" width="19.56" height="34.02"/>
		
			<rect x="1461.3" y="1451.57" transform="matrix(0.9371 -0.3491 0.3491 0.9371 -420.7917 613.2527)" class="st2" width="59.53" height="45.07"/>
		
			<rect x="1519.13" y="1255.98" transform="matrix(0.9172 -0.3985 0.3985 0.9172 -390.1433 731.8561)" class="st2" width="92.69" height="96.94"/>
		
			<rect x="1306.53" y="1347.82" transform="matrix(0.8025 -0.5966 0.5966 0.8025 -544.2643 1080.2643)" class="st2" width="106.3" height="28.91"/>
		
			<rect x="1687.22" y="1222.53" transform="matrix(0.8272 -0.562 0.562 0.8272 -402.9279 1170.1775)" class="st2" width="27.21" height="35.15"/>
		
			<rect x="1769.99" y="1160.17" transform="matrix(0.7071 -0.7071 0.7071 0.7071 -305.8107 1604.7218)" class="st2" width="28.35" height="22.68"/>
		
			<rect x="1596.51" y="991.22" transform="matrix(0.866 -0.5 0.5 0.866 -279.6065 959.3509)" class="st2" width="107.72" height="20.41"/>
		
			<rect x="2026.24" y="1042.25" transform="matrix(0.7373 -0.6755 0.6755 0.7373 -185.6522 1658.0537)" class="st2" width="26.08" height="51.02"/>
		
			<rect x="1696.29" y="967.41" transform="matrix(0.8364 -0.5481 0.5481 0.8364 -272.9204 1099.8027)" class="st2" width="19.28" height="79.37"/>
		
			<rect x="1819.88" y="874.44" transform="matrix(0.7941 -0.6078 0.6078 0.7941 -182.1931 1304.0817)" class="st2" width="27.21" height="92.98"/>
		
			<rect x="1864.1" y="832.48" transform="matrix(0.866 -0.5 0.5 0.866 -173.9752 1051.9659)" class="st2" width="23.81" height="36.28"/>
		
			<rect x="1754.12" y="907.32" transform="matrix(0.736 -0.6769 0.6769 0.736 -153.6297 1453.5291)" class="st2" width="65.76" height="32.88"/>
		
			<rect x="1912.05" y="705.16" transform="matrix(0.895 -0.4462 0.4462 0.895 -113.7979 948.2617)" class="st2" width="89.57" height="21.26"/>
		
			<rect x="1901.98" y="758.9" transform="matrix(-0.4676 -0.8839 0.8839 -0.4676 2176.9351 2850.1765)" class="st2" width="89.57" height="21.26"/>
		
			<rect x="2063.28" y="696.42" transform="matrix(0.8373 -0.5467 0.5467 0.8373 -66.3405 1251.5443)" class="st2" width="12.85" height="81.64"/>
		<rect x="2018.68" y="767.1" class="st2" width="18.14" height="20.79"/>
		
			<rect x="2339.95" y="686.41" transform="matrix(0.8094 -0.5873 0.5873 0.8094 40.3773 1516.048)" class="st2" width="31.18" height="18.83"/>
		
			<rect x="2343.86" y="694.85" transform="matrix(0.8229 -0.5682 0.5682 0.8229 -0.4752 1466.9856)" class="st2" width="18.14" height="78.8"/>
		<polygon class="st2" points="2275.73,768.21 2250.69,799.5 2236.44,781.97 2261.47,750.69 		"/>
		<polygon class="st2" points="2321.74,822.87 2335.98,804.28 2274.85,732.83 2260.61,751.42 		"/>
		<polygon class="st2" points="2180.19,791.48 2155.15,822.76 2140.89,805.24 2165.93,773.96 		"/>
		<polygon class="st2" points="2226.19,846.13 2240.44,827.54 2179.3,756.09 2165.06,774.68 		"/>
		
			<rect x="1793.8" y="1069.46" transform="matrix(0.8334 -0.5526 0.5526 0.8334 -295.3678 1204.8998)" class="st2" width="114.52" height="45.92"/>
		
			<rect x="1825.55" y="1117.08" transform="matrix(0.5647 0.8253 -0.8253 0.5647 1750.1371 -1029.9257)" class="st2" width="51.59" height="53.86"/>
		
			<rect x="1822.15" y="1236.14" transform="matrix(0.7951 -0.6064 0.6064 0.7951 -380.3719 1367.8906)" class="st2" width="24.38" height="21.54"/>
		
			<rect x="1959.91" y="1185.11" transform="matrix(0.7959 -0.6054 0.6054 0.7959 -327.1165 1444.6094)" class="st2" width="38.55" height="44.79"/>
		
			<rect x="2080.67" y="1024.67" transform="matrix(-0.7071 -0.7071 0.7071 -0.7071 2839.1797 3241.2456)" class="st2" width="20.41" height="15.87"/>
		
			<rect x="2102.21" y="1001.71" transform="matrix(-0.7071 -0.7071 0.7071 -0.7071 2892.1921 3217.2827)" class="st2" width="20.41" height="15.87"/>
		
			<rect x="2060.26" y="1035.16" transform="matrix(-0.7071 -0.7071 0.7071 -0.7071 2796.9224 3244.7185)" class="st2" width="20.41" height="15.87"/>
		<rect x="2049.49" y="1122.18" class="st2" width="17.01" height="20.98"/>
		<rect x="1226.87" y="1539.63" class="st2" width="17.01" height="102.05"/>
		<rect x="1164.89" y="1620.14" class="st2" width="64.63" height="20.41"/>
		<rect x="1364.07" y="1490.12" class="st2" width="15.87" height="10.96"/>
		<rect x="1364.45" y="1521.11" class="st2" width="90.33" height="18.14"/>
		<rect x="1230.28" y="1404.51" class="st2" width="28.91" height="14.17"/>
		<rect x="929.8" y="1602.37" class="st2" width="17.01" height="70.87"/>
		<rect x="986.5" y="1647.73" class="st2" width="14.74" height="20.98"/>
		<rect x="957.02" y="1608.04" class="st2" width="56.69" height="30.61"/>
		<rect x="1053.39" y="1584.23" class="st2" width="28.35" height="43.09"/>
		<rect x="1039.79" y="1648.29" class="st2" width="90.14" height="23.81"/>
		<rect x="1116.89" y="1554.75" class="st2" width="28.35" height="56.13"/>
		<ellipse class="st2" cx="1350.75" cy="1568.64" rx="15.02" ry="16.72"/>
		
			<rect x="1481.61" y="1369.93" transform="matrix(0.81 -0.5864 0.5864 0.81 -525.1057 1138.3804)" class="st2" width="25.32" height="19.28"/>
		
			<rect x="1522.81" y="1415.66" transform="matrix(0.7986 -0.6019 0.6019 0.7986 -541.8677 1231.0868)" class="st2" width="91.09" height="18.9"/>
		<rect x="1668.32" y="1365.77" class="st2" width="12.85" height="29.86"/>
		
			<rect x="1678.15" y="1303.03" transform="matrix(0.8038 -0.5949 0.5949 0.8038 -440.2033 1292.1145)" class="st2" width="121.32" height="20.79"/>
		
			<rect x="1827.25" y="1261.65" transform="matrix(0.7916 -0.611 0.611 0.7916 -383.1175 1420.9486)" class="st2" width="128.69" height="20.98"/>
		
			<rect x="1622.59" y="1255.41" transform="matrix(0.8841 -0.4673 0.4673 0.8841 -400.4307 916.6646)" class="st2" width="50.46" height="20.41"/>
		
			<rect x="1938.37" y="1102.91" transform="matrix(0.8387 -0.5446 0.5446 0.8387 -293.5441 1254.9706)" class="st2" width="66.9" height="40.25"/>
		
			<rect x="2153.8" y="1009.37" transform="matrix(0.8199 -0.5725 0.5725 0.8199 -189.9565 1438.08)" class="st2" width="74.27" height="23.24"/>
		
			<rect x="2296.1" y="944.74" transform="matrix(0.8182 -0.5749 0.5749 0.8182 -134.4941 1515.1307)" class="st2" width="65.2" height="51.02"/>
		
			<rect x="2249.05" y="935.1" transform="matrix(0.8444 -0.5357 0.5357 0.8444 -155.3618 1359.0637)" class="st2" width="26.08" height="23.81"/>
		
			<rect x="2177.61" y="948.14" transform="matrix(0.8835 -0.4684 0.4684 0.8835 -190.5712 1140.6599)" class="st2" width="41.39" height="10.77"/>
		
			<rect x="2106.75" y="1084.2" transform="matrix(0.8058 -0.5922 0.5922 0.8058 -235.1925 1489.1981)" class="st2" width="92.41" height="37.98"/>
		
			<rect x="1656.04" y="821.71" transform="matrix(0.8268 -0.5625 0.5625 0.8268 -171.9524 1114.4186)" class="st2" width="135.5" height="29.48"/>
		<rect x="1767.16" y="739.51" class="st2" width="20.41" height="69.17"/>
		<rect x="1269.11" y="993.21" class="st2" width="90.99" height="17.01"/>
		<rect x="1783.98" y="978.37" class="st2" width="13.61" height="14.36"/>
		<rect x="1714.05" y="894.09" class="st2" width="7.94" height="10.2"/>
		<rect x="1658.12" y="1033.18" class="st2" width="28.35" height="24.94"/>
		<rect x="2116.39" y="840.99" class="st2" width="35.15" height="33.45"/>
		<rect x="2076.7" y="881.24" class="st2" width="37.42" height="27.78"/>
		<path class="st3" d="M2564.91,636.22c-60,8.3-113.45,0.55-129.63-14.92c-22.83-21.83-21.55-49.89-49.89-63.5
			c-21.14-10.15-43.23-4.8-58.39-1.13c-43.96,10.63-53.92,36.63-95.81,56.69c-30.38,14.55-55.35,15.35-83.34,17.57
			c-27.45,2.18-149.17,23.85-392.6,67.18c-12.14,2.16-228.36,41.67-259.37,96.94c-3.57,6.36-13.54,28.71-34.87,35.72
			c-13.39,4.4-23.23,0.11-40.82,8.5c-12.15,5.79-13.19,10.57-20.41,11.06c-14.51,0.97-24.34-17.4-36.57-31.46
			c-25.95-29.84-64.14-41.9-83.34-43.37c-35.07-2.69-65.43,25.43-95.24,59.53c-107.76,123.25-111.91,214.3-216,321.45
			c-27.82,28.64-54.69,50.1-91.84,57.83c-41.63,8.66-93.78-0.43-130.96-30.61c-33.37-27.08-26.36-48.16-68.03-81.64
			c-21.36-17.16-43.52-34.97-73.13-35.72c-34.54-0.88-42.5,22.38-108.85,49.32c-37.71,15.31-56.57,22.97-74.83,17.01
			c-36.79-12.01-36.69-57.64-71.43-64.63c-23.19-4.67-44.31,11.41-56.13,20.41c-30.92,23.54-50.46,65.21-47.62,105.45
			c3.22,45.68,32.59,51.46,30.61,93.54c-1.39,29.58-17.14,53.07-34.02,78.24c-27.44,40.93-47.45,46.47-49.32,69.73
			c-2.24,27.79,23.83,50.67,37.42,62.93c103.91,93.76,67.78,99.08,163.28,175.18c52.56,41.89,127.79,101.84,229.61,130.96
			c61.73,17.65,108.05,16.78,338.46-18.71c247.75-38.16,373.28-57.96,454.11-93.54c120.81-53.18,207.95-111.76,260.87-159.98"/>
	</g>
</g>
<g id="Слой_1">
	<path class="st0" d="M4135.19,2919.28c-16.99-25.62-33.2-51.74-49.48-77.81c-16.35-26.18-32.81-52.3-50.04-77.91
		c-8.64-12.83-17.36-25.61-25.9-38.5c-4.25-6.41-8.74-12.67-12.94-19.12c-3.88-5.96-6.69-12.51-10.79-18.35
		c-17.31-24.67-33.01-50.38-48.95-75.93c-16.48-26.42-32.9-52.87-49.31-79.32c-16.3-26.26-33.4-52-50.53-77.72
		c-17.07-25.64-33.39-51.78-49.55-78c-16.12-26.17-31.97-52.52-48.91-78.18c-8.52-12.91-16.93-25.91-25.53-38.77
		c-8.09-12.09-16.86-23.66-24.21-36.24c-13.9-23.8-32.24-44.85-44.48-69.64c-3.05-6.18-4.8-12.14-9.02-17.62"/>
	<path class="st3" d="M4584.19,1134.97c-60.7,3.79-99.3,6.21-141.17,28.91c-33.06,17.93-52.93,40.26-96.95,98.65
		c-46.65,61.89-69.98,92.83-115.65,163.28c-64.83,99.97-69.96,90.06-181.98,244.91c-131.47,181.74-120.84,153.87-158.17,229.61
		c-71.75,145.57-212.98,162.81-272.13,265.32c-15.4,26.69,46.67,141.53,149.67,302.74l136.06,122.46l78.24,130.96l149.67,207.5"/>
	<path class="st3" d="M4131.79,2929.3l120.76-234.71l195.59-258.52l278.93-350.36l-25.51-115.65l86.74,5.1l380.98-263.62
		l-17.01-88.44l34.02-39.12l-15.31-37.42l-8.5-51.02l62.93-8.5l18.71-20.41l13.61-56.13l-13.61-139.46l-34.02-61.23l-28.91-66.33
		l-146.27-5.1l-299.34,3.4c-62.16-9.4-114.17-9.13-151.37-6.8"/>
	
		<rect x="4568.04" y="1270.18" transform="matrix(0.8435 -0.5372 0.5372 0.8435 32.1969 2675.5229)" class="st4" width="78.24" height="24.66"/>
	
		<rect x="4679.23" y="1183" transform="matrix(0.9191 -0.3941 0.3941 0.9191 -105.2137 1950.5532)" class="st4" width="35.4" height="96.94"/>
	
		<rect x="4728.91" y="1170.18" transform="matrix(0.91 -0.4147 0.4147 0.91 -72.5563 2075.896)" class="st4" width="31.4" height="69.73"/>
	
		<rect x="4548.48" y="1146.88" transform="matrix(0.8249 -0.5653 0.5653 0.8249 134.4418 2782.1367)" class="st4" width="17.86" height="54.43"/>
	
		<rect x="4498.31" y="1172.39" transform="matrix(0.7714 -0.6363 0.6363 0.7714 260.692 3143.6235)" class="st4" width="15.31" height="73.13"/>
	
		<rect x="4371.03" y="1263.1" transform="matrix(0.7586 0.6516 -0.6516 0.7586 1910.9156 -2534.9849)" class="st5" width="10.77" height="96.38"/>
	
		<rect x="4427.44" y="1310.43" transform="matrix(0.7586 0.6516 -0.6516 0.7586 1955.3781 -2560.3113)" class="st5" width="10.77" height="96.38"/>
	
		<rect x="4485.27" y="1349.55" transform="matrix(0.7586 0.6516 -0.6516 0.7586 1994.8264 -2588.5461)" class="st5" width="10.77" height="96.38"/>
	
		<rect x="4593.57" y="1313.39" transform="matrix(0.6538 0.7567 -0.7567 0.6538 2660.9785 -2990.7786)" class="st5" width="10.77" height="198.52"/>
	
		<rect x="5027.25" y="1301.93" transform="matrix(-0.866 0.5 -0.5 -0.866 10066.0859 3.0396)" class="st5" width="10.77" height="96.38"/>
	
		<rect x="4945.62" y="1367.05" transform="matrix(-0.866 0.5 -0.5 -0.866 9952.665 185.4458)" class="st5" width="11.74" height="118.16"/>
	
		<rect x="4878.79" y="1421.43" transform="matrix(-0.8969 0.4423 -0.4423 -0.8969 9920.3857 647.7885)" class="st5" width="11.74" height="118.16"/>
	
		<rect x="4981.05" y="1705.87" transform="matrix(0.8269 -0.5623 0.5623 0.8269 -102.6563 3106.5549)" class="st5" width="28.35" height="28.35"/>
	
		<rect x="3960.57" y="1923" transform="matrix(0.6296 -0.7769 0.7769 0.6296 -49.4577 3818.2361)" class="st5" width="37.98" height="75.97"/>
	
		<rect x="4174.87" y="2087.98" transform="matrix(0.6089 -0.7933 0.7933 0.6089 -37.9914 4145.9575)" class="st5" width="20.98" height="47.06"/>
	
		<rect x="3872.13" y="2123.13" transform="matrix(0.7071 -0.7071 0.7071 0.7071 -389.633 3390.0701)" class="st5" width="50.46" height="84.47"/>
	
		<rect x="4113.64" y="1742.15" transform="matrix(0.6044 -0.7967 0.7967 0.6044 222.4644 3990.7002)" class="st5" width="31.75" height="58.39"/>
	
		<rect x="4447.38" y="1521.24" transform="matrix(0.866 0.5 -0.5 0.866 1383.8311 -2018.1151)" class="st5" width="20.79" height="103.94"/>
	<rect x="4292.42" y="1559.03" class="st5" width="24.57" height="31.37"/>
	<rect x="4331.72" y="1598.34" class="st5" width="26.83" height="29.86"/>
	<rect x="4380.48" y="1625.93" class="st5" width="21.92" height="32.13"/>
	
		<rect x="4091.72" y="1830.03" transform="matrix(0.813 0.5823 -0.5823 0.813 1866.5906 -2033.6924)" class="st5" width="15.5" height="118.3"/>
	
		<rect x="4015.73" y="1836.44" transform="matrix(0.781 0.6245 -0.6245 0.781 2043.8055 -2132.4651)" class="st5" width="93.58" height="23.06"/>
	
		<rect x="4046.03" y="1773.27" transform="matrix(0.8046 0.5938 -0.5938 0.8046 1859.9292 -2058.9519)" class="st5" width="24.64" height="46.49"/>
	
		<rect x="4334.18" y="2410.56" transform="matrix(0.7071 -0.7071 0.7071 0.7071 -467.1316 3794.8459)" class="st5" width="26.08" height="101.48"/>
	
		<rect x="4372.16" y="2369.74" transform="matrix(0.7071 -0.7071 0.7071 0.7071 -427.143 3809.7493)" class="st5" width="26.08" height="101.48"/>
	
		<rect x="4402.21" y="2333.46" transform="matrix(0.7071 -0.7071 0.7071 0.7071 -392.6861 3820.3687)" class="st5" width="26.08" height="101.48"/>
	
		<rect x="4434.53" y="2297.17" transform="matrix(0.7071 -0.7071 0.7071 0.7071 -357.5649 3832.5916)" class="st5" width="26.08" height="101.48"/>
	
		<rect x="4395.99" y="2420.33" transform="matrix(0.7508 0.6606 -0.6606 0.7508 2729.5205 -2295.4434)" class="st5" width="21.27" height="98.09"/>
	<ellipse class="st5" cx="4560.95" cy="2108.95" rx="27.78" ry="34.02"/>
	<ellipse class="st5" cx="4306.97" cy="2217.8" rx="25.51" ry="28.35"/>
	<ellipse class="st5" cx="3867.03" cy="2340.83" rx="27.78" ry="33.45"/>
	
		<rect x="4556.42" y="1784.1" transform="matrix(0.8076 -0.5897 0.5897 0.8076 -211.0085 3045.5444)" class="st5" width="11.91" height="124.16"/>
	
		<rect x="4611.41" y="1549.96" transform="matrix(0.8387 -0.5447 0.5447 0.8387 -112.5062 2769.457)" class="st5" width="13.61" height="49.32"/>
	
		<rect x="4672.07" y="1642.37" transform="matrix(0.8387 -0.5447 0.5447 0.8387 -153.0511 2817.4075)" class="st5" width="13.61" height="49.32"/>
	
		<rect x="4713.45" y="1708.7" transform="matrix(0.866 -0.5 0.5 0.866 -234.2872 2592.3557)" class="st5" width="13.61" height="49.32"/>
	<polyline class="st1" points="5060.42,1147.82 4996.32,1193.09 4519.69,1529.7 4252.69,2100.83 4111.19,2388.09 3915.79,2592.54 	
		"/>
	<line class="st6" x1="3920.18" y1="1855.68" x2="4255.94" y2="2097.62"/>
	<line class="st6" x1="3929.39" y1="1863.76" x2="3713.39" y2="2264.29"/>
	
		<rect x="4486.4" y="1951.77" transform="matrix(0.7439 0.6683 -0.6683 0.7439 2471.3789 -2496.5278)" class="st5" width="13.61" height="49.32"/>
	
		<rect x="4445.58" y="1912.66" transform="matrix(0.7439 0.6683 -0.6683 0.7439 2434.7849 -2479.2671)" class="st5" width="13.61" height="49.32"/>
	
		<rect x="4400.51" y="1867.58" transform="matrix(0.7439 0.6683 -0.6683 0.7439 2393.124 -2460.6895)" class="st5" width="13.61" height="49.32"/>
	
		<rect x="4351.19" y="2114.2" transform="matrix(-0.7071 0.7071 -0.7071 -0.7071 8951.957 569.6977)" class="st5" width="13.61" height="49.32"/>
	
		<rect x="4811.28" y="1741.2" transform="matrix(0.866 -0.5 0.5 0.866 -242.5621 2646.9968)" class="st5" width="13.61" height="69.85"/>
	
		<rect x="4842.71" y="1514.61" transform="matrix(0.866 -0.5 0.5 0.866 -125.0563 2632.3574)" class="st5" width="13.61" height="69.85"/>
	
		<rect x="4799.34" y="1419.37" transform="matrix(0.866 -0.5 0.5 0.866 -83.2448 2597.9121)" class="st5" width="13.61" height="69.85"/>
	
		<rect x="5026.71" y="1596.94" transform="matrix(0.8289 -0.5594 0.5594 0.8289 -60.8373 3097.5059)" class="st5" width="13.5" height="102.54"/>
	
		<rect x="5064.95" y="1220.05" transform="matrix(0.866 -0.5 0.5 0.866 52.0012 2704.011)" class="st5" width="13.61" height="69.85"/>
	
		<rect x="5131.09" y="1212.86" transform="matrix(0.553 0.8332 -0.8332 0.553 3336.1968 -3723.0088)" class="st5" width="13.61" height="69.85"/>
	
		<rect x="4115.63" y="2456" transform="matrix(0.8111 -0.5849 0.5849 0.8111 -678.2202 2881.9241)" class="st5" width="13.61" height="69.85"/>
	
		<rect x="4076.51" y="2488.31" transform="matrix(0.8067 -0.5909 0.5909 0.8067 -701.838 2900.7341)" class="st5" width="13.61" height="69.85"/>
	
		<rect x="4072.26" y="2602.27" transform="matrix(0.8276 -0.5613 0.5613 0.8276 -777.079 2744.0415)" class="st5" width="13.61" height="69.85"/>
	
		<rect x="4180.26" y="2682.2" transform="matrix(0.8193 -0.5734 0.5734 0.8193 -801.303 2891.73)" class="st5" width="13.61" height="69.85"/>
	
		<rect x="4253.66" y="2539.72" transform="matrix(0.8339 -0.552 0.552 0.8339 -720.5037 2780.3899)" class="st5" width="9.67" height="94.72"/>
	
		<rect x="4263.74" y="1648.42" transform="matrix(-0.669 0.7433 -0.7433 -0.669 8365.1787 -395.9943)" class="st5" width="14.05" height="32.71"/>
	
		<rect x="4274.43" y="1782.49" transform="matrix(-0.669 0.7433 -0.7433 -0.669 8482.667 -180.1729)" class="st5" width="14.05" height="32.71"/>
	
		<rect x="4300.51" y="1711.06" transform="matrix(-0.669 0.7433 -0.7433 -0.669 8473.0957 -318.7764)" class="st5" width="14.05" height="32.71"/>
	
		<rect x="4183.94" y="1830.12" transform="matrix(0.7439 0.6683 -0.6683 0.7439 2312.6304 -2325.5593)" class="st5" width="13.61" height="49.32"/>
	
		<rect x="4149.93" y="1915.16" transform="matrix(0.7439 0.6683 -0.6683 0.7439 2360.7485 -2281.0515)" class="st5" width="13.61" height="49.32"/>
	
		<rect x="4236.48" y="1881.9" transform="matrix(0.7439 0.6683 -0.6683 0.7439 2360.6858 -2347.4075)" class="st5" width="13.61" height="49.32"/>
	
		<rect x="4296.19" y="1917.05" transform="matrix(0.866 0.5 -0.5 0.866 1547.3475 -1891.3591)" class="st5" width="13.61" height="49.32"/>
	
		<rect x="4208.78" y="1730.14" transform="matrix(-0.669 0.7433 -0.7433 -0.669 8344.8047 -214.2567)" class="st5" width="22.67" height="41.93"/>
	
		<rect x="3943" y="2332.83" transform="matrix(0.8067 -0.5909 0.5909 0.8067 -635.7639 2791.7832)" class="st5" width="13.61" height="69.85"/>
	
		<rect x="4015.04" y="2235.08" transform="matrix(0.5826 0.8128 -0.8128 0.5826 3572.5618 -2311.1536)" class="st5" width="42.52" height="174.81"/>
	
		<rect x="4007.41" y="1997.28" transform="matrix(0.7832 0.6218 -0.6218 0.7832 2191.6812 -2035.9194)" class="st5" width="15.16" height="254.47"/>
	
		<rect x="3966.2" y="2019.02" transform="matrix(0.7071 0.7071 -0.7071 0.7071 2620.9514 -2214.8298)" class="st5" width="35.63" height="74.66"/>
	
		<rect x="3955.75" y="2082.54" transform="matrix(0.7071 0.7071 -0.7071 0.7071 2653.6902 -2192.7471)" class="st5" width="35.96" height="48.75"/>
	
		<rect x="4116.63" y="2049.35" transform="matrix(0.7346 0.6785 -0.6785 0.7346 2521.1182 -2238.7568)" class="st5" width="11.59" height="108.18"/>
	
		<rect x="4740.29" y="1590.12" transform="matrix(0.8387 -0.5447 0.5447 0.8387 -113.5838 2846.1343)" class="st5" width="13.61" height="49.32"/>
	
		<rect x="4689.64" y="1491.47" transform="matrix(0.8387 -0.5447 0.5447 0.8387 -68.0262 2802.6328)" class="st5" width="13.61" height="49.32"/>
	
		<rect x="4794.71" y="1612.8" transform="matrix(0.8387 -0.5447 0.5447 0.8387 -117.1539 2879.437)" class="st5" width="13.61" height="49.32"/>
	
		<rect x="4741.42" y="1456.7" transform="matrix(0.8387 -0.5447 0.5447 0.8387 -40.7327 2825.2251)" class="st5" width="13.61" height="49.32"/>
	
		<rect x="4459.85" y="2034.59" transform="matrix(0.7439 0.6683 -0.6683 0.7439 2519.9246 -2457.5767)" class="st5" width="13.61" height="49.32"/>
	
		<rect x="4347.97" y="1941.99" transform="matrix(0.8441 0.5362 -0.5362 0.8441 1733.6079 -2028.5032)" class="st5" width="13.61" height="49.32"/>
	
		<rect x="4307.91" y="2029.68" transform="matrix(0.866 0.5 -0.5 0.866 1605.26 -1882.147)" class="st5" width="13.61" height="49.32"/>
	<path class="st5" d="M4707.22,2008.04l-0.76-1.24l-42.9-70.19l-46.49,51.02c11.54,21.96,42.76,87.08,19.84,130.96
		c-3.16,6.06-16.66,24.45-43.65,61.23c-8.64,11.78-11.52,15.46-17.01,19.84c-18.87,15.09-40.65,15.98-65.76,17.01
		c-13.52,0.55-27.08,0.99-44.22-3.97c-13.2-3.82-23.34-9.33-30.05-13.61l-32.32,41.39l129.26,77.67l191.62-234.71"/>
	<polygon class="st5" points="4693.42,1971.76 4805.3,1859.88 4846.12,1932.07 4790.18,1971 	"/>
	
		<rect x="4879.75" y="1650.88" transform="matrix(0.6036 0.7973 -0.7973 0.6036 3287.1497 -3224.2214)" class="st5" width="12.09" height="85.04"/>
	
		<rect x="5191.94" y="1297.49" transform="matrix(0.8365 -0.5479 0.5479 0.8365 121.8826 3066.2476)" class="st5" width="15.5" height="62.74"/>
	
		<rect x="5168.89" y="1326.31" transform="matrix(0.8164 -0.5774 0.5774 0.8164 169.9754 3236.6287)" class="st5" width="13.61" height="49.32"/>
	<line class="st7" x1="5171.53" y1="1593.05" x2="4996.32" y2="1193.09"/>
	<polyline class="st7" points="5120.51,1483.06 4767.88,1725.71 4788.29,1788.07 4737.27,1839.1 4711.19,1843.63 4382.37,2200.8 
		4248.57,2093.08 	"/>
	<line class="st7" x1="4638.62" y1="1445.65" x2="4767.88" y2="1725.71"/>
	<line class="st7" x1="4299.6" y1="1328.86" x2="4530.9" y2="1519.35"/>
	<line class="st7" x1="3973.05" y1="2533.02" x2="4173.74" y2="2843.69"/>
	<polyline class="st7" points="4109.11,2395.82 4217.96,2568.17 4089.83,2714.43 	"/>
	
		<rect x="4193.01" y="2329.77" transform="matrix(0.5413 -0.8408 0.8408 0.5413 -81.6307 4630.6567)" class="st8" width="21.26" height="120.76"/>
	
		<rect x="4218.95" y="2283.43" transform="matrix(0.4633 -0.8862 0.8862 0.4633 192.7996 5005.979)" class="st8" width="21.26" height="120.76"/>
	
		<rect x="4232.56" y="2246.01" transform="matrix(0.4633 -0.8862 0.8862 0.4633 233.2599 4997.9565)" class="st8" width="21.26" height="120.76"/>
	<path class="st3" d="M3644.64,2123.11c0.81,1.14,1.61,2.28,2.42,3.42"/>
	<path class="st3" d="M3614.75,2170.75c-0.88,1.53-2.04,2.86-3.29,4.09"/>
	<path class="st3" d="M4457.49,1158.78c1.5-3,2.91-6.04,4.28-9.1"/>
</g>
<g id="Слой_2">
	<path class="st0" d="M3640.28,2145.76c-3.47-5.19-3.58-11.37-7.58-15.37c-7-7-13-15-20-23c-10-15-19-28-30-43c-6-10-11-20-17-30
		c-13-21-27-39-40-60c-10-16-19-30-29-46c-35-50-61-95-96-144c-2-3-3-7-5-10c-24-33-42-62-65-95c-2-4-3-7-5-11c-8-12-15-21-22-33
		c-2-2-4-4-6-6c-1-1-1-3-1-5c-1-1-2-2-3-3c-1-2-2-5-4-7c-3-3-5-6-8-9c-2-3-3-7-5-10c-19-30-38-54-58-83c-10-15-18-29-28-44
		c-13-20-27-35-40-54c-16-24-30-45-47-69c-19-29-35-55-58-81c-2-2-3-5-5-8c-14-17-28-32-44-47c-3-2-6-4-9-6c-40-33-81-60-128-79
		c-11-4-21-9-32-14c-1,0-2,0-3,0c-11-5-21-8-32-13c-2-1-5-1-7-1c-4-2-9-4-13-6c-51-16-101-29-152-45c-29-9-57-19-86-29
		c-6-2-11-5-17-8c-2-1-3,0-5-1c-11-7-22-13-34-18c-2,0-5,1-7,2c-7,5-14,10-21,15c-48,29-90,55-137,86c-12,7-22,13-34,20
		c-98,64-186,116-284,182c-4,3-9,4-13,7c-10,7-18,13-28,19c-28,17-53,33-81,51c-6,3-11,6-17,9c-69,46-134,85-201.28,127.05"/>
	<path class="st1" d="M3155.3,2707.94c-71.43-59.47-171.9-159.23-249.45-308.41c-37.75-72.62-61.84-141.11-77.56-199.53
		c-1.2-4.46-1.92-9.03-2.14-13.65l-19.93-409.59c-0.11-2.25-0.33-4.48-0.68-6.71c-3.24-20.7-15.19-74.89-62.97-116.61
		c-40.01-34.93-86.27-44.63-122.7-45.56c-34.96-0.89-64.16,26.46-65.8,61.39l-28.3,603.84c-1.72,36.72,27.59,67.44,64.35,67.44
		h41.34"/>
	<path class="st1" d="M1908.05,1351.85L2300,1812.05c7.42,8.71,18.32,13.67,29.76,13.53l217.22-2.62"/>
	<path class="st1" d="M2450.04,1231.66l67.21,41.19c2.01,1.23,4.36,1.76,6.7,1.5l15.95-1.77c11.53-1.28,21.75,7.42,22.33,19
		l16.5,327.87"/>
	<path class="st1" d="M2312.55,1822.96l18.56,68.57c0.67,2.46,0.96,5,0.88,7.55l-4.13,127.97l-2.55,111.4"/>
	<line class="st1" x1="2440.4" y1="2253.83" x2="2328.15" y2="2067.31"/>
	<path class="st1" d="M2558.73,987.05c-0.03,9.34-0.03,19.34-0.42,28.04"/>
	<path class="st5" d="M2626.92,999.22"/>
	<ellipse class="st5" cx="3064.59" cy="1466.37" rx="27.78" ry="34.02"/>
	<path class="st3" d="M3617.91,2169.92l-107.15,125.86l-144.57,187.09l-158,200.03c-1.24,1.57-2.74,2.9-4.44,3.95l-44.64,27.57
		c-6.35,3.92-14.51,3.28-20.16-1.59c-16.3-14.04-38.43-33.76-63.59-58.18c-72.48-70.36-78.34-90.71-117.35-110.55
		c-45.64-23.21-49.59-1.45-134.36-25.51c-22.71-6.45-77.07-21.88-137.76-57.83c-40.2-23.81-51.31-37.75-90.14-51.02
		c-43.63-14.92-53.49-5.49-73.13-20.41c-37.91-28.79-14.61-74.06-51.02-115.65c-30.16-34.44-55.02-13.54-96.94-47.62
		c-54.5-44.31-31.78-95.32-81.64-129.26c-36.99-25.18-84.99-21.26-126.71-17.86c-55.22,4.51-74.43,21.43-117.35,11.06
		c-33.61-8.12-55.94-26.74-65.48-34.87c-42.48-36.2-49.98-78.15-73.13-135.21c-20.34-50.13-18.59-27.71-80.79-144.57
		c-86.03-161.62-72.31-172.42-116.5-217.13c-29.77-30.12-60.25-49.75-55.56-73.7c4.36-22.23,36.45-35,64.37-42.43
		c1.67-0.45,3.27-1.13,4.74-2.05l747.04-468.16c4.44-2.79,9.91-3.38,14.85-1.62c41.56,14.87,99.04,36.04,166.79,62.97
		c191.06,75.95,288.28,115.34,370.77,184.25c84.39,70.5,126.27,144.84,159.87,202.39c92.76,158.86,233.66,380.11,464.31,705.83"/>
	<path class="st3" d="M2536.9,980.75c0.15,1.62,0.29,3.24,0.44,4.85"/>
	<line class="st2" x1="3242.89" y1="1009.14" x2="3230.13" y2="1009.14"/>
	
		<rect x="3182.51" y="1549.14" transform="matrix(0.797 -0.6039 0.6039 0.797 -342.9298 2261.5208)" class="st2" width="21.54" height="183.69"/>
	
		<rect x="1760.65" y="1538.08" transform="matrix(0.8471 -0.5315 0.5315 0.8471 -543.6848 1205.4037)" class="st2" width="124.16" height="18.71"/>
	
		<rect x="1841.44" y="1549.56" transform="matrix(-0.5375 -0.8433 0.8433 -0.5375 1612.0347 4001.9946)" class="st2" width="124.16" height="18.71"/>
	
		<rect x="1745.04" y="1611.64" transform="matrix(-0.5375 -0.8433 0.8433 -0.5375 1411.4814 4016.1536)" class="st2" width="124.16" height="18.71"/>
	
		<rect x="1941.78" y="1674.14" transform="matrix(0.9004 -0.435 0.435 0.9004 -537.507 1033.8948)" class="st2" width="96.09" height="34.02"/>
	
		<rect x="2033.07" y="1676.55" transform="matrix(0.9074 -0.4202 0.4202 0.9074 -536.8727 1019.5457)" class="st2" width="25.51" height="103.75"/>
	
		<rect x="1882.26" y="1741.75" transform="matrix(0.9074 -0.4202 0.4202 0.9074 -578.2276 962.2121)" class="st2" width="25.51" height="103.75"/>
	
		<rect x="2268.33" y="1795.75" transform="matrix(0.9266 -0.3761 0.3761 0.9266 -533.2069 992.6602)" class="st2" width="15.31" height="132.66"/>
	<rect x="2292.3" y="1920.77" class="st2" width="15.31" height="132.66"/>
	
		<rect x="2098.55" y="1955.91" transform="matrix(0.9004 -0.435 0.435 0.9004 -644.8951 1117.6621)" class="st2" width="41.16" height="23.44"/>
	
		<rect x="1964.47" y="1930.95" transform="matrix(0.9074 -0.4202 0.4202 0.9074 -648.4207 1011.1588)" class="st2" width="13.1" height="92.96"/>
	
		<rect x="2024.52" y="1967.26" transform="matrix(-0.066 -0.9978 0.9978 -0.066 155.8827 4173.3765)" class="st2" width="13.1" height="92.96"/>
	
		<rect x="2157.22" y="1852.75" transform="matrix(0.9074 -0.4202 0.4202 0.9074 -611.3995 1089.4541)" class="st2" width="20.07" height="159.59"/>
	
		<rect x="2091.47" y="1837.98" transform="matrix(0.4202 0.9074 -0.9074 0.4202 2929.7517 -813.5853)" class="st2" width="20.07" height="95.53"/>
	
		<rect x="2150.86" y="1963.7" transform="matrix(0.4202 0.9074 -0.9074 0.4202 3078.2788 -794.5822)" class="st2" width="20.07" height="95.53"/>
	
		<rect x="2143.33" y="1331.44" transform="matrix(0.6721 0.7404 -0.7404 0.6721 1719.5432 -1143.885)" class="st2" width="16.16" height="76.54"/>
	
		<rect x="2081.04" y="1293.54" transform="matrix(0.6721 0.7404 -0.7404 0.6721 1672.5488 -1113.5409)" class="st2" width="25.21" height="76.54"/>
	
		<rect x="2065.09" y="1407.97" transform="matrix(0.8021 -0.5972 0.5972 0.8021 -443.918 1522.3632)" class="st2" width="19.56" height="45.92"/>
	
		<rect x="2023.81" y="1434.59" transform="matrix(0.7071 -0.7071 0.7071 0.7071 -436.5758 1871.4117)" class="st2" width="33.79" height="56.21"/>
	<rect x="2472.43" y="1586.55" class="st2" width="33.17" height="73.13"/>
	
		<rect x="2357.63" y="1637.58" transform="matrix(0.7593 0.6508 -0.6508 0.7593 1661.2189 -1137.3102)" class="st2" width="20.41" height="78.24"/>
	
		<rect x="2251.33" y="1462.4" transform="matrix(0.7833 -0.6217 0.6217 0.7833 -438.5336 1731.5636)" class="st2" width="25.51" height="64.63"/>
	<rect x="2480.93" y="1453.89" class="st2" width="20.41" height="27.21"/>
	<rect x="2420.55" y="1314.43" class="st2" width="17.86" height="22.11"/>
	<rect x="2452.87" y="1282.96" class="st2" width="17.01" height="21.26"/>
	<rect x="2511.55" y="1303.37" class="st2" width="11.06" height="21.26"/>
	<rect x="2415.45" y="1191.12" class="st2" width="28.06" height="25.51"/>
	<rect x="2481.78" y="1209.83" class="st2" width="11.06" height="19.56"/>
	<rect x="2510.7" y="1231.09" class="st2" width="17.86" height="21.26"/>
	
		<rect x="2196.05" y="1209.83" transform="matrix(0.8094 -0.5873 0.5873 0.8094 -284.7638 1572.9417)" class="st2" width="169.23" height="30.61"/>
	<rect x="2379.74" y="1112.03" class="st2" width="27.21" height="25.51"/>
	<rect x="2419.7" y="1140.95" class="st2" width="18.71" height="19.56"/>
	
		<rect x="2629.18" y="1168.16" transform="matrix(0.866 0.5 -0.5 0.866 956.2184 -1164.303)" class="st2" width="43.09" height="68.03"/>
	<rect x="2597.06" y="1298.55" class="st2" width="87.69" height="16.63"/>
	<rect x="2663.96" y="1312.16" class="st2" width="20.79" height="23.81"/>
	
		<rect x="2703.64" y="1205.2" transform="matrix(0.8225 0.5688 -0.5688 0.8225 1184.2609 -1321.942)" class="st2" width="12.85" height="62.36"/>
	
		<rect x="2720.65" y="1234.3" transform="matrix(0.866 0.5 -0.5 0.866 997.0658 -1229.8185)" class="st2" width="145.51" height="22.68"/>
	<rect x="2849.42" y="1275.12" class="st2" width="11.72" height="46.87"/>
	<rect x="2835.17" y="1343.53" class="st2" width="22.3" height="16.25"/>
	<rect x="2755.04" y="1329.92" class="st2" width="32.88" height="48.76"/>
	<rect x="2780.74" y="1376.79" class="st2" width="25.32" height="39.69"/>
	<rect x="2716.87" y="1349.96" class="st2" width="37.8" height="42.33"/>
	<rect x="2670" y="1451.63" class="st2" width="33.26" height="20.03"/>
	<rect x="2589.12" y="1327.28" class="st2" width="13.61" height="119.81"/>
	<rect x="2601.59" y="1468.77" class="st2" width="15.5" height="117.92"/>
	<rect x="2613.69" y="1569.92" class="st2" width="75.59" height="16.63"/>
	<rect x="2680.96" y="1549.14" class="st2" width="70.3" height="21.92"/>
	<rect x="2670.38" y="1493.96" class="st2" width="52.16" height="6.8"/>
	<rect x="2742.19" y="1501.14" class="st2" width="13.23" height="9.83"/>
	<rect x="2816.65" y="1528.73" class="st2" width="23.43" height="95.62"/>
	
		<rect x="2903.58" y="1416.48" transform="matrix(0.7539 0.6569 -0.6569 0.7539 1660.552 -1556.9127)" class="st2" width="10.2" height="43.65"/>
	<rect x="2909.81" y="1489.61" class="st2" width="23.24" height="18.14"/>
	
		<rect x="2904.71" y="1371.12" transform="matrix(0.7867 0.6173 -0.6173 0.7867 1486.2721 -1536.3405)" class="st2" width="123.59" height="23.24"/>
	
		<rect x="2986.35" y="1405.14" transform="matrix(0.93 0.3675 -0.3675 0.93 745.6987 -998.4666)" class="st2" width="17.01" height="107.72"/>
	<rect x="2828.74" y="1677.26" class="st2" width="24.94" height="86.17"/>
	
		<rect x="2904.15" y="1737.64" transform="matrix(-1.836970e-16 1 -1 -1.836970e-16 4697.3452 -1135.8905)" class="st2" width="24.94" height="86.17"/>
	
		<rect x="2904.15" y="1614.62" transform="matrix(-1.836970e-16 1 -1 -1.836970e-16 4574.3218 -1258.9141)" class="st2" width="24.94" height="86.17"/>
	
		<rect x="2967.64" y="1673.01" transform="matrix(-1 -1.224647e-16 1.224647e-16 -1 5960.228 3432.1951)" class="st2" width="24.94" height="86.17"/>
	<rect x="2923.99" y="1858.68" class="st2" width="22.96" height="100.35"/>
	<rect x="2969.06" y="1848.48" class="st2" width="15.31" height="60.38"/>
	<rect x="2870.41" y="2078.93" class="st2" width="17.01" height="117.35"/>
	<rect x="2913.78" y="2187.78" class="st2" width="66.33" height="17.86"/>
	<rect x="2994.57" y="2056.82" class="st2" width="22.11" height="85.04"/>
	<rect x="2884.87" y="2030.46" class="st2" width="93.54" height="25.51"/>
	<rect x="3251.39" y="1744.73" class="st2" width="57.83" height="58.68"/>
	<rect x="3298.16" y="1812.76" class="st2" width="33.17" height="39.97"/>
	<rect x="3256.49" y="1849.33" class="st2" width="40.82" height="41.67"/>
	
		<rect x="3076.06" y="1585.55" transform="matrix(0.7777 -0.6287 0.6287 0.7777 -308.716 2314.3101)" class="st2" width="83.34" height="16.16"/>
	
		<rect x="3192.71" y="1748.98" transform="matrix(0.7786 -0.6275 0.6275 0.7786 -392.2215 2408.395)" class="st2" width="48.47" height="22.11"/>
	
		<rect x="3152.73" y="1825.04" transform="matrix(0.7786 -0.6275 0.6275 0.7786 -444.9275 2405.6978)" class="st2" width="68.08" height="16.67"/>
	
		<rect x="3140.47" y="1945.99" transform="matrix(-0.6038 -0.7971 0.7971 -0.6038 3582.4114 5691.2759)" class="st2" width="130.02" height="18.84"/>
	
		<ellipse transform="matrix(0.8234 -0.5674 0.5674 0.8234 -567.4635 2119.042)" class="st2" cx="3121.28" cy="1971.36" rx="31.46" ry="69.31"/>
	
		<rect x="3070.26" y="1663.09" transform="matrix(0.5841 0.8117 -0.8117 0.5841 2656.1277 -1794.5597)" class="st2" width="17.86" height="62.93"/>
	
		<rect x="3070.26" y="1752.38" transform="matrix(0.7987 -0.6017 0.6017 0.7987 -452.2153 2213.2161)" class="st2" width="23.81" height="60.38"/>
	
		<rect x="3037.09" y="1834.87" transform="matrix(0.7071 0.7071 -0.7071 0.7071 2208.1055 -1616.8795)" class="st2" width="37.42" height="44.22"/>
	
		<rect x="3072.81" y="2057.67" transform="matrix(0.7864 -0.6177 0.6177 0.7864 -630.9705 2352.7598)" class="st2" width="27.21" height="62.08"/>
	
		<rect x="3180.96" y="2142.86" transform="matrix(0.6122 0.7907 -0.7907 0.6122 2956.2883 -1679.3749)" class="st2" width="18.71" height="62.93"/>
	
		<rect x="3139.23" y="2109.43" transform="matrix(-0.7868 0.6172 -0.6172 -0.7868 6958.2271 1910.5194)" class="st2" width="19.79" height="95.32"/>
	
		<rect x="3132.89" y="2081.61" transform="matrix(0.6122 0.7907 -0.7907 0.6122 2889.2175 -1665.1179)" class="st2" width="18.71" height="62.93"/>
	
		<rect x="3201.22" y="2078.08" transform="matrix(0.7951 -0.6065 0.6065 0.7951 -616.9135 2377.7234)" class="st2" width="18.71" height="47.62"/>
	
		<rect x="3429.98" y="1944.62" transform="matrix(-0.7868 0.6172 -0.6172 -0.7868 7378.0068 1443.7117)" class="st2" width="19.32" height="103.15"/>
	
		<rect x="3363.64" y="1944.14" transform="matrix(0.6122 0.7907 -0.7907 0.6122 2870.0068 -1900.8756)" class="st2" width="18.71" height="62.93"/>
	
		<rect x="3455.22" y="2075.46" transform="matrix(0.6099 0.7925 -0.7925 0.6099 3022.0986 -1923.4032)" class="st2" width="18.71" height="64.53"/>
	
		<rect x="3330.45" y="2047.12" transform="matrix(0.6772 0.7358 -0.7358 0.6772 2627.9856 -1776.2736)" class="st2" width="15.64" height="119.29"/>
	
		<rect x="3312.08" y="2150.75" transform="matrix(-0.7557 0.6549 -0.6549 -0.7557 7272.1455 1683.9709)" class="st2" width="19.79" height="95.32"/>
	
		<rect x="3320.92" y="2287.97" transform="matrix(-0.7557 0.6549 -0.6549 -0.7557 7370.3979 1905.1815)" class="st2" width="17.84" height="78.74"/>
	
		<rect x="3401.74" y="2254.42" transform="matrix(0.7071 0.7071 -0.7071 0.7071 2634.9297 -1733.1508)" class="st2" width="15.64" height="119.29"/>
	
		<rect x="3224.86" y="2467.02" transform="matrix(0.7071 0.7071 -0.7071 0.7071 2733.4519 -1545.8077)" class="st2" width="15.64" height="119.29"/>
	
		<rect x="3152.58" y="2523.99" transform="matrix(0.7071 0.7071 -0.7071 0.7071 2752.5688 -1478.0076)" class="st2" width="15.64" height="119.29"/>
	
		<rect x="3074.77" y="2510.52" transform="matrix(-0.7557 0.6549 -0.6549 -0.7557 7096.0806 2492.5674)" class="st2" width="16.69" height="118.69"/>
	
		<rect x="3109.37" y="2382.52" transform="matrix(0.7071 0.7071 -0.7071 0.7071 2628.2698 -1494.2695)" class="st2" width="17.01" height="85.89"/>
	
		<rect x="3281.15" y="2406.33" transform="matrix(0.7071 0.7071 -0.7071 0.7071 2689.647 -1616.0846)" class="st2" width="28.91" height="64.63"/>
	
		<rect x="2998.82" y="2288.98" transform="matrix(0.7071 0.7071 -0.7071 0.7071 2529.7451 -1443.4962)" class="st2" width="17.01" height="85.89"/>
	<rect x="3501.88" y="2136.48" class="st2" width="41.95" height="61.98"/>
	
		<rect x="3491.18" y="2084" transform="matrix(0.8213 -0.5704 0.5704 0.8213 -581.7062 2374.196)" class="st2" width="16.63" height="63.56"/>
	
		<rect x="3444.81" y="2164.98" transform="matrix(0.7386 -0.6741 0.6741 0.7386 -578.2839 2902.1443)" class="st2" width="16.63" height="63.56"/>
	
		<rect x="3526.72" y="2028.14" transform="matrix(0.7868 -0.6173 0.6173 0.7868 -514.7522 2618.3569)" class="st2" width="11" height="52.1"/>
	
		<rect x="3281.81" y="1960.93" transform="matrix(0.6122 0.7907 -0.7907 0.6122 2838.8284 -1835.355)" class="st2" width="17.59" height="31.3"/>
	
		<rect x="3224.18" y="2287.28" transform="matrix(0.5674 0.8234 -0.8234 0.5674 3304.657 -1674.2919)" class="st2" width="43.37" height="41.67"/>
	
		<rect x="3219.07" y="2379.97" transform="matrix(0.7071 -0.7071 0.7071 0.7071 -754.7473 2987.1448)" class="st2" width="18.71" height="49.32"/>
	<rect x="2596.87" y="1724.32" class="st2" width="87.87" height="20.41"/>
	<rect x="2577.59" y="1737.92" class="st2" width="18.14" height="189.35"/>
	<rect x="2590.07" y="1922.18" class="st2" width="20.98" height="27.21"/>
	<rect x="2632.59" y="1810.49" class="st2" width="46.49" height="31.75"/>
	<rect x="2725" y="1741.89" class="st2" width="19.28" height="49.89"/>
	<rect x="2740.3" y="1772.51" class="st2" width="26.08" height="24.38"/>
	<rect x="2767.52" y="1834.3" class="st2" width="29.48" height="172.91"/>
	<rect x="2718.19" y="1837.7" class="st2" width="22.11" height="118.49"/>
	<rect x="2664.9" y="1948.26" class="st2" width="74.83" height="27.78"/>
	<rect x="2718.19" y="2008.92" class="st2" width="25.51" height="17.57"/>
	<rect x="2563.99" y="2073.55" class="st2" width="126.99" height="27.21"/>
	<rect x="2564.55" y="2096.22" class="st2" width="24.94" height="216.57"/>
	<rect x="2635.99" y="2220.95" class="st2" width="34.02" height="22.68"/>
	<rect x="2708.55" y="2222.65" class="st2" width="18.14" height="107.15"/>
	<rect x="2663.37" y="2328.77" class="st2" width="62.93" height="18.71"/>
	
		<rect x="2835.55" y="2336.6" transform="matrix(0.8895 -0.4569 0.4569 0.8895 -780.3466 1567.9635)" class="st2" width="32.31" height="121.61"/>
	<rect x="2353.37" y="1846.77" class="st2" width="138.61" height="173.48"/>
	<rect x="2378.89" y="2054.27" class="st2" width="79.94" height="28.91"/>
	<rect x="2477.53" y="2060.22" class="st2" width="21.26" height="20.41"/>
	<rect x="2461.37" y="2094.24" class="st2" width="32.31" height="77.39"/>
	<rect x="2389.09" y="2099.34" class="st2" width="52.72" height="19.56"/>
	<rect x="2416.3" y="2143.56" class="st2" width="24.66" height="17.86"/>
	<path class="st3" d="M1675.68,1533.28c1.68-1.51,3.36-3.03,5.03-4.55"/>
	<polyline class="st3" points="3623.65,2156.44 3638.54,2136.17 3655.54,2118.31 	"/>
</g>
<g id="Слой_3">
	
		<rect x="4387.67" y="1256.31" transform="matrix(0.7586 0.6516 -0.6516 0.7586 1910.5082 -2547.4668)" class="st5" width="10.77" height="96.38"/>
	<path class="st1" d="M4111.01,1585.69c-45.83-51.27-89.83-102.27-136.83-155.27c-7-9-16-16-20-26c-21-57-31-115-32-175
		c-3-175-5-350-8-525c-7-61-15-124-55-176c-9-10-17-19-27-28c-22-18-43-33-67-50c-17-13-32-25-48-37c-70-34-139-71-209-106
		c-63-26-131-30-200-17c-159,32-307,57-461,84c-35,14-71,26-105,43c-23,12-43,26-63,43c-16,14-29,28-42,45c-2,3-2,5-4,8
		c-1,1-2,2-3,3c-6,9-9,18-13,28c-6,15-11,30-17,46c-2,7-4,15-7,22c-2,6-2,12-3,18c-6,47-10,93-14,140
		c-5,64-15.84,154.54-17.5,217.67"/>
	<path class="st1" d="M2576.9,797.09l92.98,6.8l0,0c20.8,11.89,44.35,18.14,68.31,18.14h1172.13"/>
	<ellipse class="st5" cx="4155.23" cy="1068.08" rx="27.78" ry="34.02"/>
	<ellipse class="st5" cx="2640.39" cy="959.23" rx="27.78" ry="34.02"/>
	<rect x="4146.73" y="938.54" class="st5" width="66.33" height="30.61"/>
	<rect x="4198.45" y="969.16" class="st5" width="14.46" height="130.11"/>
	
		<rect x="4059.13" y="779.52" transform="matrix(-1.836970e-16 1 -1 -1.836970e-16 4910.936 -3221.7903)" class="st5" width="14.46" height="130.11"/>
	<path class="st3" d="M4474.13,1151.99c8.06-15.57,15.06-32.57,24.06-48.57c1-2-1-5-2-6c-3-2-5-4-7-6c-14-18-27-34-42-51
		c-7-7-12-14-19-21c-5-4-9-9-13-14c-1-1-3-2-4-3c-3-4-6-7-9-11c-9-9-18-18-27-27c-13-12-25-24-39-35c-4-4-7-8-11-12
		c-11-7-19-15-29-23c-8-7-15-14-22-22c-4-6-9-11-12-18c-1-1-2-2-3-3c-19-34-27-80-67-95c-17-2-33-2-50,2c-3,0-6,0-9,0
		c-50,6-101,3-146-23c-1-1-2-2-3-3c-11-6-20-14-29-24c-2-2-3-5-5-7s-3-5-4-7c-1-1-2-2-3-3c-4-9-10-18-11-28c-2-18-1-35-4-53
		c-4-22-14-40-25-59c-9-14-20-26-31-39c-2-2-5-4-7-6c-25-30-51-55-79-82c-21-22-41-43-66-62c-15-11-28-21-44-32c-3-2-5-2-8-4
		c-69-46-144-70-223-72c-41,0-81,5-122,10c-5,0-9,1-14,1c-41,5-80,12-121,24c-114,32-224,49-341,68c-49,7-90,27-133,51c-2,2-4,4-7,5
		c-1,1-2,2-3,3c-24,13-42,32-63,50c-2,3-4,6-6,9c-7,7-12,15-18,23c-3,5-6,10-9,15c-34,63-44,130-53,200c-4,28,0.08,57.17-8,84
		c-9.76,32.4,1.86,69.82-2,95c-3.25,21.21-8.99,73.4-7.76,92.18"/>
	<rect x="4072.74" y="906.23" class="st2" width="31.46" height="33.17"/>
	<rect x="4196.9" y="1229.38" class="st2" width="27.21" height="37.42"/>
	<rect x="4166.28" y="1309.31" class="st2" width="22.11" height="17.01"/>
	<rect x="4043.83" y="1390.1" class="st2" width="80.79" height="22.96"/>
	<rect x="4040.43" y="1314.42" class="st2" width="95.24" height="19.56"/>
	
		<rect x="3656.05" y="452.12" transform="matrix(0.8395 0.5434 -0.5434 0.8395 849.0405 -1932.5519)" class="st2" width="79.09" height="37.42"/>
	<rect x="3814.22" y="562.67" class="st2" width="23.81" height="216"/>
	<rect x="3718.98" y="563.52" class="st2" width="23.81" height="215.15"/>
	<rect x="3618.63" y="563.52" class="st2" width="18.71" height="206.65"/>
	<rect x="3522.54" y="565.22" class="st2" width="14.46" height="210.9"/>
	<rect x="3333.75" y="737.85" class="st2" width="108" height="28.06"/>
	<rect x="3218.95" y="563.52" class="st2" width="20.41" height="213.45"/>
	<rect x="3131.36" y="560.97" class="st2" width="12.76" height="218.55"/>
	
		<rect x="3205.34" y="350.92" transform="matrix(0.9677 -0.2522 0.2522 0.9677 7.3698 824.8145)" class="st2" width="31.46" height="65.48"/>
	<rect x="2926.41" y="409.6" class="st2" width="164.13" height="28.06"/>
	<rect x="3098.19" y="482.73" class="st2" width="38.27" height="23.81"/>
	<rect x="2743.58" y="475.93" class="st2" width="175.18" height="18.71"/>
	<rect x="3033.56" y="556.71" class="st2" width="20.41" height="229.61"/>
	<rect x="2942.57" y="567.77" class="st2" width="13.61" height="216.85"/>
	<rect x="2747.83" y="610.29" class="st2" width="46.77" height="17.86"/>
	<rect x="2747.83" y="663.01" class="st2" width="99.5" height="22.96"/>
	<rect x="2766.54" y="627.3" class="st2" width="16.16" height="39.97"/>
	<rect x="2650.88" y="611.99" class="st2" width="27.21" height="28.06"/>
	<rect x="2639.83" y="711.49" class="st2" width="22.11" height="28.06"/>
	<rect x="2677.24" y="519.3" class="st2" width="21.26" height="54.43"/>
	<ellipse class="st2" cx="3369.04" cy="635.38" rx="69.31" ry="34.44"/>
	<rect x="3345.65" y="412.15" class="st2" width="68.03" height="99.5"/>
	<rect x="3569.31" y="468.27" class="st2" width="17.01" height="60.38"/>
	<rect x="3520.84" y="367.93" class="st2" width="19.56" height="59.53"/>
	
		<rect x="3262.32" y="320.31" transform="matrix(0.978 -0.2084 0.2084 0.978 3.1246 698.3252)" class="st2" width="105.45" height="28.06"/>
	<rect x="3844.84" y="861.16" class="st2" width="27.21" height="153.07"/>
	<rect x="3786.16" y="866.26" class="st2" width="17.01" height="140.31"/>
	<rect x="3656.05" y="881.56" class="st2" width="46.77" height="31.46"/>
	<rect x="3661.15" y="928.34" class="st2" width="67.18" height="179.43"/>
	<rect x="3624.58" y="1122.23" class="st2" width="62.08" height="28.91"/>
	<rect x="3713.87" y="1157.09" class="st2" width="46.77" height="44.22"/>
	<rect x="3784.46" y="1100.12" class="st2" width="14.46" height="73.13"/>
	<rect x="3854.19" y="1102.67" class="st2" width="15.31" height="70.58"/>
	<rect x="3757.24" y="1167.3" class="st2" width="112.25" height="30.61"/>
	<rect x="3243.61" y="844.15" class="st2" width="73.13" height="17.86"/>
	<rect x="3243.61" y="958.1" class="st2" width="12.76" height="45.07"/>
	<rect x="3194.28" y="879.86" class="st2" width="21.26" height="46.77"/>
	<rect x="3150.91" y="883.27" class="st2" width="22.96" height="113.95"/>
	<rect x="3111.8" y="947.9" class="st2" width="16.16" height="52.72"/>
	<rect x="3125.4" y="963.2" class="st2" width="29.76" height="19.56"/>
	<rect x="2999.54" y="888.37" class="st2" width="25.51" height="118.2"/>
	<rect x="2968.08" y="947.05" class="st2" width="14.46" height="56.13"/>
	<rect x="2977.43" y="962.35" class="st2" width="25.51" height="21.26"/>
	<rect x="3122" y="850.1" class="st2" width="14.46" height="25.51"/>
	<rect x="3082.03" y="867.11" class="st2" width="17.01" height="13.61"/>
	<rect x="3087.13" y="910.48" class="st2" width="11.91" height="22.96"/>
	<rect x="3031.86" y="882.42" class="st2" width="29.76" height="58.68"/>
	<rect x="3013.15" y="907.93" class="st2" width="25.51" height="14.46"/>
	<rect x="3569.31" y="1185.16" class="st2" width="28.06" height="31.46"/>
	<rect x="3675.61" y="1171.55" class="st2" width="11.91" height="37.42"/>
	<rect x="3782.76" y="1283.8" class="st2" width="22.96" height="135.21"/>
	<rect x="3849.09" y="1305.06" class="st2" width="21.26" height="142.87"/>
	<rect x="3548.05" y="1237.88" class="st2" width="55.28" height="22.96"/>
	<rect x="3434.95" y="1237.03" class="st2" width="67.18" height="24.66"/>
	<rect x="3437.5" y="1299.11" class="st2" width="63.78" height="22.11"/>
	<rect x="3468.96" y="1259.14" class="st2" width="12.76" height="46.77"/>
	<rect x="3305.69" y="1195.36" class="st2" width="21.26" height="114.8"/>
	<rect x="3258.06" y="1250.64" class="st2" width="17.86" height="47.62"/>
	<rect x="3323.54" y="1381.6" class="st2" width="70.58" height="22.96"/>
	<rect x="3392.43" y="1402.86" class="st2" width="67.18" height="22.11"/>
	<rect x="3497.87" y="1480.24" class="st2" width="23.81" height="43.37"/>
	<rect x="3542.95" y="1483.64" class="st2" width="36.57" height="34.87"/>
	<rect x="3557.4" y="1549.12" class="st2" width="77.39" height="34.87"/>
	<rect x="3130.5" y="1080.56" class="st2" width="70.58" height="24.66"/>
	<rect x="3061.62" y="1066.1" class="st2" width="76.54" height="28.06"/>
	<rect x="3224.05" y="1078.01" class="st2" width="18.71" height="14.46"/>
	<rect x="2707.01" y="850.1" class="st2" width="62.93" height="22.11"/>
	<rect x="2766.54" y="859.88" class="st2" width="62.93" height="22.11"/>
	<rect x="2826.06" y="872.64" class="st2" width="62.93" height="22.11"/>
	<rect x="2621.97" y="827.99" class="st2" width="25.51" height="23.81"/>
	<rect x="2627.07" y="865.41" class="st2" width="28.91" height="26.36"/>
	<rect x="2690" y="915.58" class="st2" width="22.11" height="34.02"/>
	<rect x="2798.85" y="991.27" class="st2" width="58.68" height="32.31"/>
	<rect x="2729.97" y="970.86" class="st2" width="28.91" height="23.81"/>
	<rect x="2739.32" y="992.12" class="st2" width="28.06" height="29.76"/>
	<rect x="2678.95" y="974.26" class="st2" width="18.71" height="36.57"/>
	<rect x="2931.51" y="970.01" class="st2" width="17.01" height="22.96"/>
	<rect x="2929.81" y="907.93" class="st2" width="16.16" height="24.66"/>
	<rect x="2968.93" y="852.65" class="st2" width="18.71" height="18.71"/>
	<rect x="3082.88" y="961.5" class="st2" width="14.46" height="19.56"/>
	
		<rect x="3334.6" y="836.49" transform="matrix(0.9443 0.329 -0.329 0.9443 509.2195 -1045.1947)" class="st2" width="16.16" height="290.83"/>
	
		<rect x="3443.87" y="847.97" transform="matrix(0.9443 0.329 -0.329 0.9443 519.0818 -1080.5114)" class="st2" width="16.16" height="290.83"/>
	
		<rect x="3566.33" y="853.93" transform="matrix(0.9443 0.329 -0.329 0.9443 527.8594 -1120.4729)" class="st2" width="16.16" height="290.83"/>
	
		<rect x="3697.01" y="1448.21" transform="matrix(0.8143 0.5804 -0.5804 0.8143 1612.9376 -1854.5936)" class="st2" width="16.16" height="290.83"/>
	
		<rect x="3786.58" y="1495.83" transform="matrix(0.8143 0.5804 -0.5804 0.8143 1657.2107 -1897.7419)" class="st2" width="16.16" height="290.83"/>
	
		<rect x="3893.17" y="1510.57" transform="matrix(0.8143 0.5804 -0.5804 0.8143 1685.5566 -1956.8676)" class="st2" width="16.16" height="290.83"/>
	<rect x="3648.39" y="1971.77" class="st2" width="58.96" height="44.22"/>
	<rect x="3638.19" y="1932.08" class="st2" width="62.36" height="29.48"/>
	<rect x="3641.59" y="1884.46" class="st2" width="27.21" height="53.29"/>
	<rect x="3567.89" y="1816.43" class="st2" width="52.16" height="34.02"/>
	<rect x="3582.63" y="1775.61" class="st2" width="26.08" height="46.49"/>
	<rect x="3515.73" y="1771.08" class="st2" width="30.61" height="53.01"/>
	<rect x="3395.54" y="1582.86" class="st2" width="43.09" height="74.83"/>
	<rect x="3372.87" y="1503.49" class="st2" width="61.23" height="75.97"/>
	
		<rect x="3458.69" y="1627.29" transform="matrix(0.7998 -0.6002 0.6002 0.7998 -346.4266 2428.3918)" class="st2" width="17.98" height="212.6"/>
	<rect x="3155.92" y="1174.29" class="st2" width="30.61" height="122.08"/>
	<rect x="3119.26" y="1213.97" class="st2" width="37.42" height="39.69"/>
	<rect x="3063.32" y="1159.55" class="st2" width="18.52" height="30.61"/>
	<rect x="3075.8" y="1188.65" class="st2" width="23.81" height="25.32"/>
	
		<rect x="2844.49" y="1082.26" transform="matrix(0.8967 0.4427 -0.4427 0.8967 790.5455 -1191.2448)" class="st2" width="205.23" height="31.18"/>
	<rect x="2739.04" y="756.84" class="st2" width="18.71" height="20.41"/>
	<rect x="2801.4" y="715.45" class="st2" width="60.66" height="14.17"/>
	<rect x="2821.24" y="682.01" class="st2" width="16.44" height="39.12"/>
	<rect x="3964.74" y="919.55" class="st2" width="22.68" height="148.54"/>
	<rect x="3971.54" y="1166.73" class="st2" width="29.48" height="27.21"/>
	
		<rect x="4294.69" y="1100.97" transform="matrix(0.6657 -0.7463 0.7463 0.6657 615.6826 3603.3733)" class="st2" width="69.17" height="27.21"/>
</g>
</svg>
