<?xml version="1.0" encoding="utf-8"?>
<!-- Generator: Adobe Illustrator 23.1.0, SVG Export Plug-In . SVG Version: 6.00 Build 0)  -->
<svg version="1.1" id="Слой_1" xmlns="http://www.w3.org/2000/svg" xmlns:xlink="http://www.w3.org/1999/xlink" x="0px" y="0px"
	 viewBox="0 0 878.74 566.93" style="enable-background:new 0 0 878.74 566.93;" xml:space="preserve">
<style type="text/css">
	.st0{fill:none;stroke:#EF7B2E;stroke-width:23;stroke-miterlimit:10;}
	.st1{fill:none;stroke:#575757;stroke-width:11;stroke-miterlimit:10;}
	.st2{fill:#575757;stroke:#575757;stroke-width:11;stroke-miterlimit:10;}
	.st3{fill:#575757;stroke:#575757;stroke-width:8;stroke-miterlimit:10;}
	.st4{fill:none;stroke:#EF7B2E;stroke-width:10;stroke-miterlimit:10;}
	.st5{fill:none;stroke:#EF7B2E;stroke-width:9;stroke-miterlimit:10;}
	.st6{fill:none;stroke:#EF7B2E;stroke-width:5;stroke-miterlimit:10;}
	.st7{fill:#575757;stroke:#575757;stroke-width:5;stroke-miterlimit:10;}
</style>
<path class="st0" d="M290.78,553.37c-8.65-7.7-16.91-15.55-25.2-23.39c-8.33-7.87-16.71-15.72-25.49-23.42
	c-4.4-3.86-8.84-7.7-13.19-11.58c-2.16-1.93-4.45-3.81-6.59-5.75c-1.98-1.79-3.41-3.76-5.5-5.52c-8.82-7.42-16.81-15.14-24.93-22.83
	c-8.39-7.94-16.76-15.89-25.12-23.85c-8.3-7.89-17.01-15.63-25.74-23.37c-8.7-7.71-17.01-15.57-25.24-23.45
	c-8.21-7.87-16.29-15.79-24.91-23.5c-4.34-3.88-8.62-7.79-13-11.65c-4.12-3.63-8.59-7.11-12.33-10.89
	c-7.08-7.16-16.42-13.48-22.66-20.94c-1.55-1.86-2.45-3.65-4.59-5.3"/>
<path class="st1" d="M519.51,16.95c-30.92,1.14-50.58,1.87-71.91,8.69c-16.84,5.39-26.96,12.1-49.38,29.66
	c-23.76,18.61-35.65,27.91-58.91,49.09c-33.02,30.05-35.64,27.08-92.7,73.63c-66.97,54.64-61.56,46.26-80.57,69.03
	c-36.55,43.76-108.49,48.94-138.62,79.76c-7.84,8.02,23.77,42.55,76.24,91.01l69.31,36.81L212.81,494l76.24,62.38"/>
<path class="st1" d="M289.05,556.38l61.51-70.56l99.63-77.72l142.08-105.33l-13-34.77l44.18,1.53l194.07-79.25l-8.66-26.59
	l17.33-11.76l-7.8-11.25l-4.33-15.34l32.06-2.56l9.53-6.14l6.93-16.87l-6.93-41.93l-17.33-18.41L823.6,19.51l-74.51-1.53L596.61,19
	c-31.67-2.83-58.16-2.74-77.11-2.05"/>
<polygon class="st2" points="544.64,51.86 511.02,64.5 517.77,70.75 551.38,58.12 "/>
<polygon class="st2" points="594.95,57.26 578.37,61.45 558.91,34.66 575.48,30.47 "/>
<polygon class="st2" points="615.86,45.6 601.31,49.51 586.58,30.44 601.13,26.52 "/>
<polygon class="st2" points="517.45,33.94 509.95,36.98 494.27,23.48 501.78,20.45 "/>
<polygon class="st2" points="494.51,46.21 488.5,49.14 464.79,32.18 470.81,29.25 "/>
<polygon class="st3" points="395.59,79.89 399.75,82 431.74,60.02 427.58,57.91 "/>
<polygon class="st3" points="424.32,94.12 428.49,96.23 460.47,74.25 456.31,72.14 "/>
<polygon class="st3" points="453.78,105.88 457.94,107.99 489.93,86.01 485.77,83.9 "/>
<polygon class="st3" points="486.97,118.72 490.56,121.17 567.08,82.15 563.49,79.7 "/>
<polygon class="st3" points="738.04,68.28 733.29,69.89 757.84,94.99 762.59,93.37 "/>
<polygon class="st3" points="694.14,88.22 688.96,89.98 719.06,120.75 724.24,118.98 "/>
<polygon class="st3" points="661.94,104.12 656.57,105.68 683.19,137.54 688.56,135.98 "/>
<polygon class="st3" points="738.91,193.97 726.97,198.76 718.85,191.71 730.79,186.92 "/>
<polygon class="st3" points="232.63,268.03 220.45,276.9 190.39,262.52 202.57,253.65 "/>
<polygon class="st3" points="329.1,312.33 322.6,317.34 303.58,308.72 310.09,303.72 "/>
<polygon class="st3" points="175.76,341.06 193.94,330.34 163.51,312.38 145.34,323.1 "/>
<polygon class="st3" points="304.63,209.77 294.86,217.37 271.16,206.76 280.93,199.16 "/>
<polygon class="st3" points="437.28,160.67 446.45,163.79 472.93,136.73 463.76,133.61 "/>
<rect x="370.88" y="144.44" class="st3" width="12.51" height="9.43"/>
<rect x="390.9" y="156.25" class="st3" width="13.67" height="8.98"/>
<rect x="415.73" y="164.55" class="st3" width="11.17" height="9.66"/>
<polygon class="st3" points="251.84,256.79 258.26,259.5 293.34,230.59 286.93,227.88 "/>
<polygon class="st3" points="268.71,242.79 231.49,225.22 238.82,219.81 276.05,237.38 "/>
<polygon class="st3" points="239.56,219.25 249.66,223.65 263.72,212.41 253.63,208.01 "/>
<polygon class="st3" points="421.76,423.7 412.37,429.25 375.82,407.67 385.21,402.13 "/>
<polygon class="st3" points="441.11,411.43 431.72,416.97 395.17,395.4 404.56,389.86 "/>
<polygon class="st3" points="456.42,400.52 447.03,406.07 410.47,384.49 419.87,378.95 "/>
<polygon class="st3" points="472.88,389.62 463.49,395.16 426.93,373.59 436.33,368.04 "/>
<polygon class="st3" points="416.62,431.3 408.48,427.07 441.49,404.93 449.63,409.16 "/>
<ellipse class="st3" cx="507.67" cy="309.76" rx="14.15" ry="10.23"/>
<ellipse class="st3" cx="378.29" cy="342.49" rx="13" ry="8.52"/>
<ellipse class="st3" cx="154.19" cy="379.47" rx="14.15" ry="10.06"/>
<polygon class="st3" points="529.48,244.78 524.59,246.89 487.29,216.75 492.19,214.64 "/>
<polygon class="st3" points="546.58,154.23 540.77,156.46 527.08,144.02 532.9,141.79 "/>
<polygon class="st3" points="577.48,182.01 571.67,184.24 557.98,171.8 563.8,169.57 "/>
<polygon class="st3" points="598.1,202.25 592.1,204.29 579.53,191.45 585.54,189.4 "/>
<polyline class="st4" points="762.09,20.81 729.44,34.42 486.64,135.62 350.64,307.32 278.56,393.68 179.02,455.14 "/>
<line class="st5" x1="181.26" y1="233.62" x2="352.3" y2="306.35"/>
<line class="st5" x1="185.95" y1="236.05" x2="75.92" y2="356.46"/>
<polygon class="st3" points="467.34,276.8 462.18,274.07 478.97,263.04 484.13,265.77 "/>
<polygon class="st3" points="446.55,265.04 441.39,262.31 458.18,251.28 463.33,254.01 "/>
<polygon class="st3" points="423.59,251.49 418.43,248.76 435.22,237.73 440.38,240.46 "/>
<polygon class="st3" points="392.95,314.96 397.85,312.06 415.61,322.55 410.71,325.44 "/>
<polygon class="st3" points="650.54,217.77 644.54,219.82 626.75,201.63 632.75,199.59 "/>
<polygon class="st3" points="666.56,149.65 660.55,151.7 642.76,133.51 648.77,131.47 "/>
<polygon class="st3" points="644.46,121.02 638.46,123.06 620.67,104.88 626.67,102.83 "/>
<polygon class="st3" points="765.82,182.89 760.12,185.16 730.9,159.61 736.6,157.34 "/>
<polygon class="st3" points="779.76,61.1 773.76,63.14 755.97,44.96 761.97,42.91 "/>
<polygon class="st3" points="788.65,58.38 784.82,54.97 814.46,43.36 818.3,46.77 "/>
<polygon class="st3" points="297.5,431.91 291.88,434.31 271.07,417.27 276.69,414.88 "/>
<polygon class="st3" points="277.67,441.57 272.08,443.99 251.05,427.05 256.64,424.63 "/>
<polygon class="st3" points="275.05,476.11 269.31,478.4 249.34,461.02 255.08,458.73 "/>
<polygon class="st3" points="330.25,500.03 324.57,502.37 304.17,485.17 309.85,482.82 "/>
<polygon class="st3" points="368.97,464.57 364.86,466.18 338.22,442.43 342.33,440.83 "/>
<polygon class="st3" points="351.26,174.51 356.05,171.37 368.44,177.94 363.65,181.08 "/>
<polygon class="st3" points="356.71,214.81 361.49,211.67 373.88,218.25 369.09,221.39 "/>
<polygon class="st3" points="369.99,193.34 374.78,190.2 387.16,196.78 382.37,199.92 "/>
<polygon class="st3" points="313.27,240.23 308.11,237.5 324.9,226.47 330.06,229.2 "/>
<polygon class="st3" points="295.94,265.8 290.78,263.06 307.57,252.03 312.73,254.77 "/>
<polygon class="st3" points="340.03,255.8 334.87,253.06 351.66,242.03 356.82,244.77 "/>
<polygon class="st3" points="372.99,266.93 366.98,264.88 379.55,252.04 385.55,254.08 "/>
<polygon class="st3" points="322.24,200.5 329.97,195.43 345.85,203.86 338.12,208.93 "/>
<polygon class="st3" points="209.66,394.83 204.07,397.24 183.04,380.3 188.63,377.89 "/>
<polygon class="st3" points="210.53,394.46 197.92,384.07 270.29,353.45 282.91,363.84 "/>
<polygon class="st3" points="192.27,345.81 186.23,342.98 266.83,283.07 272.88,285.9 "/>
<polygon class="st3" points="206.75,305.67 193.91,298.1 220.81,282.22 233.64,289.8 "/>
<polygon class="st3" points="206.23,318.15 193.28,310.51 210.84,300.14 223.79,307.79 "/>
<polygon class="st3" points="263.42,318.87 267.76,321.23 305.14,297.34 300.81,294.97 "/>
<polygon class="st3" points="612.23,166.3 606.42,168.53 592.74,156.09 598.55,153.87 "/>
<polygon class="st3" points="586.43,136.64 580.62,138.87 566.94,126.44 572.75,124.21 "/>
<polygon class="st3" points="639.96,173.12 634.14,175.35 620.46,162.91 626.27,160.68 "/>
<polygon class="st3" points="612.81,126.19 607,128.42 593.31,115.98 599.13,113.76 "/>
<polygon class="st3" points="453.81,301.7 448.66,298.97 465.45,287.94 470.6,290.67 "/>
<polygon class="st3" points="398.83,274.34 392.98,272.14 406.45,259.63 412.3,261.82 "/>
<polygon class="st3" points="378.95,300.79 372.95,298.74 385.51,285.9 391.52,287.94 "/>
<path class="st3" d="M582.17,279.42l-0.39-0.37l-21.85-21.1l-23.68,15.34c5.88,6.6,21.78,26.18,10.11,39.37
	c-1.61,1.82-8.49,7.35-22.24,18.41c-4.4,3.54-5.87,4.65-8.66,5.97c-9.61,4.54-20.71,4.8-33.5,5.11c-6.89,0.17-13.79,0.3-22.53-1.19
	c-6.72-1.15-11.89-2.81-15.31-4.09l-16.46,12.44l65.84,23.35l97.61-70.56"/>
<polygon class="st3" points="575.15,268.52 632.13,234.88 652.93,256.59 624.43,268.29 "/>
<polygon class="st3" points="654.01,191.1 657.73,194 692.27,178.57 688.55,175.67 "/>
<polygon class="st3" points="838.49,84.41 845.09,81.85 827.58,66.07 820.98,68.63 "/>
<polygon class="st3" points="830.89,86.76 825.23,89.12 810.73,77.02 816.39,74.65 "/>
<line class="st6" x1="818.69" y1="154.66" x2="729.44" y2="34.42"/>
<polyline class="st6" points="792.7,121.6 613.07,194.55 623.47,213.29 597.48,228.63 584.19,230 416.7,337.37 348.54,304.99 "/>
<line class="st6" x1="547.23" y1="110.35" x2="613.07" y2="194.55"/>
<line class="st6" x1="374.53" y1="75.24" x2="492.36" y2="132.51"/>
<line class="st6" x1="208.19" y1="437.25" x2="310.42" y2="530.65"/>
<polyline class="st6" points="277.5,396 332.95,447.82 267.68,491.79 "/>
<polygon class="st7" points="354.45,401.44 348.58,406.81 296.86,387.16 302.73,381.78 "/>
<polygon class="st7" points="368.63,385.94 363.61,391.61 309.1,374.79 314.12,369.12 "/>
<polygon class="st7" points="375.56,374.69 370.54,380.36 316.03,363.54 321.05,357.87 "/>
<path class="st1" d="M40.9,314.02c0.41,0.34,0.82,0.69,1.23,1.03"/>
<path class="st1" d="M25.67,328.34c-0.45,0.46-1.04,0.86-1.67,1.23"/>
<path class="st1" d="M454.96,24.11c0.77-0.9,1.48-1.82,2.18-2.74"/>
</svg>
