<?xml version="1.0" encoding="utf-8"?>
<!-- Generator: Adobe Illustrator 23.1.0, SVG Export Plug-In . SVG Version: 6.00 Build 0)  -->
<svg version="1.1" id="Слой_1" xmlns="http://www.w3.org/2000/svg" xmlns:xlink="http://www.w3.org/1999/xlink" x="0px" y="0px"
	 viewBox="0 0 878.74 566.93" style="enable-background:new 0 0 878.74 566.93;" xml:space="preserve">
<style type="text/css">
	.st0{fill:none;stroke:#EF7B2E;stroke-width:23;stroke-miterlimit:10;}
	.st1{fill:none;stroke:#EF7B2E;stroke-width:10;stroke-miterlimit:10;}
	.st2{fill:#575757;stroke:#575757;stroke-width:8;stroke-miterlimit:10;}
	.st3{fill:none;stroke:#575757;stroke-width:11;stroke-miterlimit:10;}
	.st4{fill:#575757;}
</style>
<path class="st0" d="M864.49,380.78c-1.49-1.63-1.54-3.56-3.26-4.82c-3.01-2.19-5.6-4.7-8.61-7.21c-4.31-4.7-8.18-8.77-12.92-13.47
	c-2.58-3.13-4.74-6.27-7.32-9.4c-5.6-6.58-11.63-12.22-17.22-18.8c-4.31-5.01-8.18-9.4-12.49-14.41
	c-15.07-15.67-26.26-29.77-41.33-45.12c-0.86-0.94-1.29-2.19-2.15-3.13c-10.33-10.34-18.08-19.43-27.99-29.77
	c-0.86-1.25-1.29-2.19-2.15-3.45c-3.44-3.76-6.46-6.58-9.47-10.34c-0.86-0.63-1.72-1.25-2.58-1.88c-0.43-0.31-0.43-0.94-0.43-1.57
	c-0.43-0.31-0.86-0.63-1.29-0.94c-0.43-0.63-0.86-1.57-1.72-2.19c-1.29-0.94-2.15-1.88-3.44-2.82c-0.86-0.94-1.29-2.19-2.15-3.13
	c-8.18-9.4-16.36-16.92-24.97-26.01c-4.31-4.7-7.75-9.09-12.06-13.79c-5.6-6.27-11.63-10.97-17.22-16.92
	c-6.89-7.52-12.92-14.1-20.24-21.62c-8.18-9.09-15.07-17.23-24.97-25.38c-0.86-0.63-1.29-1.57-2.15-2.51
	c-6.03-5.33-12.06-10.03-18.94-14.73c-1.29-0.63-2.58-1.25-3.88-1.88c-17.22-10.34-34.88-18.8-55.11-24.75
	c-4.74-1.25-9.04-2.82-13.78-4.39c-0.43,0-0.86,0-1.29,0c-4.74-1.57-9.04-2.51-13.78-4.07c-0.86-0.31-2.15-0.31-3.01-0.31
	c-1.72-0.63-3.88-1.25-5.6-1.88c-21.96-5.01-43.49-9.09-65.45-14.1c-12.49-2.82-24.54-5.95-37.03-9.09
	c-2.58-0.63-4.74-1.57-7.32-2.51c-0.86-0.31-1.29,0-2.15-0.31c-4.74-2.19-9.47-4.07-14.64-5.64c-0.86,0-2.15,0.31-3.01,0.63
	c-3.01,1.57-6.03,3.13-9.04,4.7c-20.67,9.09-38.75,17.23-58.99,26.95c-5.17,2.19-9.47,4.07-14.64,6.27
	c-42.2,20.05-80.08,36.35-122.28,57.03c-1.72,0.94-3.88,1.25-5.6,2.19c-4.31,2.19-7.75,4.07-12.06,5.95
	c-12.06,5.33-22.82,10.34-34.88,15.98c-2.58,0.94-4.74,1.88-7.32,2.82c-29.71,14.41-57.7,26.63-86.66,39.81"/>
<path class="st1" d="M655.67,556.93c-30.76-18.64-74.01-49.89-107.4-96.64c-16.25-22.75-26.63-44.22-33.39-62.52
	c-0.52-1.4-0.83-2.83-0.92-4.28l-8.58-128.34c-0.05-0.7-0.14-1.41-0.29-2.1c-1.4-6.49-6.54-23.47-27.11-36.54
	c-17.22-10.94-37.14-13.99-52.83-14.27c-15.05-0.28-27.63,8.29-28.33,19.24l-12.19,189.21c-0.74,11.51,11.88,21.13,27.71,21.13h17.8
	"/>
<path class="st1" d="M118.65,132l168.76,144.2c3.19,2.73,7.89,4.28,12.81,4.24l93.53-0.82"/>
<path class="st1" d="M352.01,94.34l28.94,12.91c0.86,0.39,1.88,0.55,2.88,0.47l6.87-0.56c4.96-0.4,9.37,2.32,9.62,5.95l7.1,102.74"
	/>
<path class="st1" d="M292.82,279.63l7.99,21.49c0.29,0.77,0.41,1.57,0.38,2.37l-1.78,40.1l-1.1,34.91"/>
<line class="st1" x1="347.86" y1="414.64" x2="299.53" y2="356.19"/>
<path class="st1" d="M398.81,17.69c-0.01,2.93-0.01,6.06-0.18,8.79"/>
<path class="st2" d="M428.17,21.51"/>
<ellipse class="st2" cx="616.61" cy="167.89" rx="11.96" ry="10.66"/>
<path class="st3" d="M854.85,388.35l-46.13,39.44l-62.25,58.62l-68.03,62.68c-0.53,0.49-1.18,0.91-1.91,1.24l-19.22,8.64
	c-2.73,1.23-6.25,1.03-8.68-0.5c-7.02-4.4-16.55-10.58-27.38-18.23c-31.21-22.05-33.73-28.42-50.53-34.64
	c-19.65-7.27-21.35-0.45-57.85-7.99c-9.78-2.02-33.18-6.86-59.32-18.12c-17.31-7.46-22.09-11.83-38.81-15.99
	c-18.78-4.67-23.03-1.72-31.49-6.4c-16.32-9.02-6.29-23.21-21.97-36.24c-12.98-10.79-23.69-4.24-41.74-14.92
	c-23.47-13.88-13.68-29.87-35.15-40.5c-15.93-7.89-36.59-6.66-54.56-5.6c-23.78,1.41-32.05,6.71-50.53,3.46
	c-14.47-2.54-24.09-8.38-28.19-10.93c-18.29-11.34-21.52-24.49-31.49-42.37c-8.76-15.71-8-8.68-34.78-45.3
	c-37.04-50.64-31.13-54.03-50.16-68.04c-12.82-9.44-25.94-15.59-23.92-23.09c1.88-6.97,15.69-10.97,27.72-13.29
	c0.72-0.14,1.41-0.35,2.04-0.64l321.65-146.7c1.91-0.87,4.27-1.06,6.39-0.51c17.9,4.66,42.64,11.29,71.82,19.73
	c82.26,23.8,124.12,36.14,159.64,57.73c36.34,22.09,54.37,45.39,68.84,63.42c39.94,49.78,100.61,119.11,199.92,221.17"/>
<path class="st3" d="M389.41,15.72c0.06,0.51,0.13,1.01,0.19,1.52"/>
<line class="st4" x1="693.38" y1="24.62" x2="687.89" y2="24.62"/>
<polygon class="st4" points="699.6,243.5 692.21,247.58 644.45,201.7 651.84,197.63 "/>
<polygon class="st4" points="106.7,185.44 61.41,206.11 57.13,201.15 102.42,180.47 "/>
<polygon class="st4" points="105.73,178.91 134.46,211.72 127.67,214.87 98.94,182.06 "/>
<polygon class="st4" points="64.23,198.36 92.96,231.17 86.17,234.32 57.43,201.51 "/>
<polygon class="st4" points="138.42,249.67 175.68,236.57 169.31,226.98 132.05,240.07 "/>
<polygon class="st4" points="192.34,263.07 182.38,266.43 163.61,236.93 173.57,233.57 "/>
<polygon class="st4" points="127.41,283.51 117.44,286.86 98.67,257.36 108.64,254 "/>
<polygon class="st4" points="290.87,310.24 284.76,312.05 263.28,273.53 269.39,271.72 "/>
<rect x="284.09" y="310.27" class="st4" width="6.59" height="41.57"/>
<polygon class="st4" points="203.75,331.07 219.71,325.46 215.32,318.85 199.36,324.46 "/>
<polygon class="st4" points="156.73,340.38 151.61,342.11 134.8,315.68 139.92,313.95 "/>
<polygon class="st4" points="191.4,336.4 191.78,340.49 151.84,342.42 151.47,338.32 "/>
<polygon class="st4" points="248.61,335.33 240.77,337.97 211.9,292.6 219.74,289.95 "/>
<polygon class="st4" points="185.1,308.44 181.47,302.73 218.8,290.16 222.43,295.86 "/>
<polygon class="st4" points="210.67,347.84 207.04,342.13 244.37,329.55 248,335.26 "/>
<polygon class="st4" points="208.89,143.78 213.57,147.53 237.97,131.41 233.29,127.67 "/>
<polygon class="st4" points="182.71,130.86 190.01,136.71 214.41,120.59 207.11,114.74 "/>
<polygon class="st4" points="199.76,160.73 193.01,164.39 181.2,152.84 187.95,149.18 "/>
<polygon class="st4" points="189.47,169.22 179.18,176.71 162.07,164.26 172.36,156.77 "/>
<rect x="361.65" y="205.55" class="st4" width="14.28" height="22.92"/>
<polygon class="st4" points="302.32,241.02 308.99,245.18 330.91,226.57 324.24,222.41 "/>
<polygon class="st4" points="284.9,182.22 276.29,187.19 258.99,171.32 267.6,166.35 "/>
<rect x="365.31" y="163.98" class="st4" width="8.79" height="8.53"/>
<rect x="339.32" y="120.28" class="st4" width="7.69" height="6.93"/>
<rect x="353.23" y="110.42" class="st4" width="7.32" height="6.66"/>
<rect x="378.5" y="116.81" class="st4" width="4.76" height="6.66"/>
<rect x="337.12" y="81.64" class="st4" width="12.08" height="7.99"/>
<rect x="365.68" y="87.5" class="st4" width="4.76" height="6.13"/>
<rect x="378.13" y="94.17" class="st4" width="7.69" height="6.66"/>
<polygon class="st4" points="312.44,80.61 253.47,111.75 245.73,103.99 304.7,72.85 "/>
<rect x="321.74" y="56.86" class="st4" width="11.72" height="7.99"/>
<rect x="338.95" y="65.92" class="st4" width="8.06" height="6.13"/>
<polygon class="st4" points="439.13,97.71 423.07,90.96 437.71,72.5 453.78,79.25 "/>
<rect x="415.31" y="115.3" class="st4" width="37.75" height="5.21"/>
<rect x="444.12" y="119.57" class="st4" width="8.95" height="7.46"/>
<polygon class="st4" points="454.06,102.71 458.61,105 473.88,88.93 469.33,86.64 "/>
<polygon class="st4" points="524.54,113.2 470.28,90.4 475.17,84.25 529.42,107.05 "/>
<rect x="523.97" y="107.96" class="st4" width="5.04" height="14.69"/>
<rect x="517.84" y="129.4" class="st4" width="9.6" height="5.09"/>
<rect x="483.34" y="125.13" class="st4" width="14.16" height="15.28"/>
<rect x="494.4" y="139.82" class="st4" width="10.9" height="12.44"/>
<rect x="466.9" y="131.41" class="st4" width="16.27" height="13.26"/>
<rect x="446.72" y="163.27" class="st4" width="14.32" height="6.28"/>
<rect x="411.9" y="124.31" class="st4" width="5.86" height="37.54"/>
<rect x="417.27" y="168.64" class="st4" width="6.67" height="36.95"/>
<rect x="422.47" y="200.34" class="st4" width="32.55" height="5.21"/>
<rect x="451.44" y="193.82" class="st4" width="30.27" height="6.87"/>
<rect x="446.88" y="176.53" class="st4" width="22.46" height="2.13"/>
<rect x="477.8" y="178.78" class="st4" width="5.7" height="3.08"/>
<rect x="509.86" y="187.43" class="st4" width="10.09" height="29.96"/>
<polygon class="st4" points="544.97,165.3 541.66,163.2 554,152.89 557.32,154.99 "/>
<rect x="549.98" y="175.17" class="st4" width="10.01" height="5.68"/>
<polygon class="st4" points="592.23,156.5 550.36,132.6 556.54,126.87 598.41,150.77 "/>
<polygon class="st4" points="574.66,180.3 581.47,182.25 598.52,150.86 591.71,148.9 "/>
<rect x="515.07" y="233.97" class="st4" width="10.74" height="27"/>
<rect x="549" y="247.84" transform="matrix(-1.836970e-16 1 -1 -1.836970e-16 819.2973 -286.5115)" class="st4" width="7.82" height="37.1"/>
<rect x="549" y="209.29" transform="matrix(-1.836970e-16 1 -1 -1.836970e-16 780.7481 -325.0607)" class="st4" width="7.82" height="37.1"/>
<rect x="574.87" y="232.64" transform="matrix(-1 -1.224647e-16 1.224647e-16 -1 1160.4869 492.2825)" class="st4" width="10.74" height="27"/>
<rect x="556.08" y="290.82" class="st4" width="9.89" height="31.44"/>
<rect x="575.48" y="287.62" class="st4" width="6.59" height="18.92"/>
<rect x="533.01" y="359.83" class="st4" width="7.32" height="36.77"/>
<rect x="551.68" y="393.94" class="st4" width="28.56" height="5.6"/>
<rect x="586.47" y="352.91" class="st4" width="9.52" height="26.65"/>
<rect x="539.23" y="344.65" class="st4" width="40.28" height="7.99"/>
<rect x="697.04" y="255.11" class="st4" width="24.9" height="18.39"/>
<rect x="717.18" y="276.43" class="st4" width="14.28" height="12.52"/>
<rect x="699.24" y="287.89" class="st4" width="17.58" height="13.06"/>
<polygon class="st4" points="627.73,217.94 655.63,201.53 651.26,197.59 623.36,214.01 "/>
<polygon class="st4" points="677.08,267.37 693.33,257.84 687.35,252.45 671.1,261.98 "/>
<polygon class="st4" points="660.06,291.62 682.89,278.23 678.38,274.16 655.56,287.55 "/>
<polygon class="st4" points="697.41,335.59 663.61,303.11 657.14,306.68 690.94,339.15 "/>
<ellipse transform="matrix(0.6619 -0.7496 0.7496 0.6619 -27.7139 590.8146)" class="st4" cx="641.02" cy="326.13" rx="11.78" ry="24.97"/>
<polygon class="st4" points="609.66,242.88 614.15,247.42 636.14,235.9 631.65,231.36 "/>
<polygon class="st4" points="636.1,272.28 627.91,276.77 612.27,261.66 620.46,257.17 "/>
<polygon class="st4" points="611.8,299.33 600.4,291.04 613.87,281.24 625.26,289.53 "/>
<polygon class="st4" points="638.87,367.91 629.66,373.18 613.15,357.88 622.36,352.62 "/>
<polygon class="st4" points="657.57,393.44 662.5,398.08 683.92,386.01 678.99,381.37 "/>
<polygon class="st4" points="643.7,370.66 637,374.49 662.33,397.99 669.03,394.16 "/>
<polygon class="st4" points="636.87,374.25 641.8,378.89 663.23,366.81 658.29,362.18 "/>
<polygon class="st4" points="682.48,374.74 688.89,371.18 676.45,359.32 670.05,362.87 "/>
<polygon class="st4" points="767.67,319.32 761.12,323.06 788.53,348.49 795.08,344.76 "/>
<polygon class="st4" points="736.23,331.18 741.16,335.81 762.58,323.74 757.65,319.1 "/>
<polygon class="st4" points="775.37,372.7 780.28,377.35 802.3,365.02 797.39,360.37 "/>
<polygon class="st4" points="713.27,379.41 717.83,383.02 755.63,357.7 751.07,354.1 "/>
<polygon class="st4" points="717.22,383.96 710.78,388.02 737.66,410.59 744.09,406.53 "/>
<polygon class="st4" points="722.62,426.52 716.82,430.18 739.02,448.83 744.83,445.17 "/>
<polygon class="st4" points="744.61,445 749.37,448.46 785.69,422.03 780.93,418.57 "/>
<polygon class="st4" points="668.45,511.61 673.21,515.08 709.53,488.65 704.77,485.18 "/>
<polygon class="st4" points="637.33,529.47 642.09,532.93 678.41,506.5 673.65,503.04 "/>
<polygon class="st4" points="610.57,497.9 605.14,501.33 638.61,529.43 644.04,526.01 "/>
<polygon class="st4" points="623.9,476.05 629.07,479.82 655.22,460.79 650.05,457.02 "/>
<polygon class="st4" points="701.84,476.51 710.65,482.91 730.32,468.59 721.52,462.19 "/>
<polygon class="st4" points="576.3,446.74 581.47,450.51 607.62,431.48 602.45,427.71 "/>
<rect x="804.9" y="377.87" class="st4" width="18.06" height="19.42"/>
<polygon class="st4" points="814.62,378.07 808.73,381.05 793.12,364.69 799.01,361.72 "/>
<polygon class="st4" points="795.77,402.35 790.48,405.87 772.04,391.16 777.32,387.64 "/>
<polygon class="st4" points="826.75,357.44 823.02,359.57 809.17,346.72 812.9,344.6 "/>
<polygon class="st4" points="706.28,328.59 710.92,332.95 721.58,326.94 716.94,322.58 "/>
<polygon class="st4" points="692.58,440.95 681.98,429.76 696.75,422.35 707.35,433.54 "/>
<polygon class="st4" points="697.52,465.28 691.82,469.43 676.8,458.5 682.5,454.36 "/>
<rect x="415.23" y="248.72" class="st4" width="37.84" height="6.4"/>
<rect x="406.93" y="252.98" class="st4" width="7.81" height="59.33"/>
<rect x="412.3" y="310.72" class="st4" width="9.03" height="8.53"/>
<rect x="430.61" y="275.72" class="st4" width="20.02" height="9.95"/>
<rect x="470.4" y="254.22" class="st4" width="8.3" height="15.63"/>
<rect x="476.99" y="263.82" class="st4" width="11.23" height="7.64"/>
<rect x="488.71" y="283.18" class="st4" width="12.69" height="54.18"/>
<rect x="467.47" y="284.25" class="st4" width="9.52" height="37.13"/>
<rect x="444.52" y="318.89" class="st4" width="32.22" height="8.7"/>
<rect x="467.47" y="337.9" class="st4" width="10.98" height="5.51"/>
<rect x="401.07" y="358.15" class="st4" width="54.68" height="8.53"/>
<rect x="401.32" y="365.25" class="st4" width="10.74" height="67.86"/>
<rect x="432.08" y="404.34" class="st4" width="14.65" height="7.11"/>
<rect x="463.32" y="404.87" class="st4" width="7.81" height="33.58"/>
<rect x="443.86" y="438.12" class="st4" width="27.1" height="5.86"/>
<polygon class="st4" points="543.11,474.26 530.73,478.89 506.8,444.99 519.18,440.37 "/>
<rect x="310.39" y="287.09" class="st4" width="59.68" height="54.36"/>
<rect x="321.38" y="352.11" class="st4" width="34.42" height="9.06"/>
<rect x="363.85" y="353.97" class="st4" width="9.15" height="6.4"/>
<rect x="356.89" y="364.63" class="st4" width="13.91" height="24.25"/>
<rect x="325.77" y="366.23" class="st4" width="22.7" height="6.13"/>
<rect x="337.49" y="380.09" class="st4" width="10.62" height="5.6"/>
<path class="st3" d="M18.6,188.86c0.72-0.47,1.45-0.95,2.17-1.43"/>
<polyline class="st3" points="857.33,384.12 863.74,377.77 871.06,372.18 "/>
</svg>
