<?xml version="1.0" encoding="utf-8"?>
<!-- Generator: Adobe Illustrator 23.1.0, SVG Export Plug-In . SVG Version: 6.00 Build 0)  -->
<svg version="1.1" id="Слой_1" xmlns="http://www.w3.org/2000/svg" xmlns:xlink="http://www.w3.org/1999/xlink" x="0px" y="0px"
	 viewBox="0 0 878.74 566.93" style="enable-background:new 0 0 878.74 566.93;" xml:space="preserve">
<style type="text/css">
	.st0{fill:#575757;stroke:#575757;stroke-width:8;stroke-miterlimit:10;}
	.st1{fill:none;stroke:#EF7B2E;stroke-width:10;stroke-miterlimit:10;}
	.st2{fill:none;stroke:#575757;stroke-width:11;stroke-miterlimit:10;}
	.st3{fill:#575757;}
</style>
<polygon class="st0" points="807.08,345.73 810.63,347.88 837.89,325.55 834.34,323.41 "/>
<path class="st1" d="M700.06,421.5c-19.89-15.65-38.99-31.23-59.39-47.41c-3.04-2.75-6.95-4.89-8.68-7.94
	c-9.12-17.4-13.46-35.11-13.89-53.43c-1.3-53.43-2.17-106.87-3.47-160.3c-3.04-18.63-6.51-37.86-23.87-53.74
	c-3.91-3.05-7.38-5.8-11.72-8.55c-9.55-5.5-18.66-10.08-29.08-15.27c-7.38-3.97-13.89-7.63-20.84-11.3
	c-30.38-10.38-60.34-21.68-90.72-32.37c-27.35-7.94-56.86-9.16-86.81-5.19c-69.02,9.77-133.26,17.4-200.1,25.65
	c-15.19,4.27-30.82,7.94-45.58,13.13c-9.98,3.66-18.66,7.94-27.35,13.13c-6.95,4.27-12.59,8.55-18.23,13.74
	c-0.87,0.92-0.87,1.53-1.74,2.44c-0.43,0.31-0.87,0.61-1.3,0.92c-2.6,2.75-3.91,5.5-5.64,8.55c-2.6,4.58-4.77,9.16-7.38,14.05
	c-0.87,2.14-1.74,4.58-3.04,6.72c-0.87,1.83-0.87,3.66-1.3,5.5c-2.6,14.35-4.34,28.4-6.08,42.75c-2.17,19.54-6.87,47.19-7.6,66.46"
	/>
<path class="st1" d="M34.15,180.72l40.36,2.08l0,0c9.03,3.63,19.25,5.54,29.65,5.54h508.78"/>
<ellipse class="st0" cx="719.25" cy="263.46" rx="12.06" ry="10.39"/>
<ellipse class="st0" cx="61.71" cy="230.22" rx="12.06" ry="10.39"/>
<rect x="715.56" y="223.91" class="st0" width="28.79" height="9.35"/>
<rect x="738.01" y="233.25" class="st0" width="6.28" height="39.73"/>
<rect x="678.47" y="166.98" transform="matrix(-1.836970e-16 1 -1 -1.836970e-16 875.8932 -485.4642)" class="st0" width="4.41" height="56.48"/>
<path class="st2" d="M857.68,289.08c3.5-4.75,6.53-9.94,10.44-14.83c0.43-0.61-0.43-1.53-0.87-1.83c-1.3-0.61-2.17-1.22-3.04-1.83
	c-6.08-5.5-11.72-10.38-18.23-15.57c-3.04-2.14-5.21-4.27-8.25-6.41c-2.17-1.22-3.91-2.75-5.64-4.27c-0.43-0.31-1.3-0.61-1.74-0.92
	c-1.3-1.22-2.6-2.14-3.91-3.36c-3.91-2.75-7.81-5.5-11.72-8.24c-5.64-3.66-10.85-7.33-16.93-10.69c-1.74-1.22-3.04-2.44-4.77-3.66
	c-4.77-2.14-8.25-4.58-12.59-7.02c-3.47-2.14-6.51-4.27-9.55-6.72c-1.74-1.83-3.91-3.36-5.21-5.5c-0.43-0.31-0.87-0.61-1.3-0.92
	c-8.25-10.38-11.72-24.43-29.08-29.01c-7.38-0.61-14.32-0.61-21.7,0.61c-1.3,0-2.6,0-3.91,0c-21.7,1.83-43.84,0.92-63.37-7.02
	c-0.43-0.31-0.87-0.61-1.3-0.92c-4.77-1.83-8.68-4.27-12.59-7.33c-0.87-0.61-1.3-1.53-2.17-2.14c-0.87-0.61-1.3-1.53-1.74-2.14
	c-0.43-0.31-0.87-0.61-1.3-0.92c-1.74-2.75-4.34-5.5-4.77-8.55c-0.87-5.5-0.43-10.69-1.74-16.18c-1.74-6.72-6.08-12.21-10.85-18.01
	c-3.91-4.27-8.68-7.94-13.46-11.91c-0.87-0.61-2.17-1.22-3.04-1.83c-10.85-9.16-22.14-16.79-34.29-25.04
	c-9.12-6.72-17.8-13.13-28.65-18.93c-6.51-3.36-12.15-6.41-19.1-9.77c-1.3-0.61-2.17-0.61-3.47-1.22
	c-29.95-14.05-62.51-21.37-96.8-21.98c-17.8,0-35.16,1.53-52.96,3.05c-2.17,0-3.91,0.31-6.08,0.31c-17.8,1.53-34.73,3.66-52.52,7.33
	c-49.48,9.77-97.23,14.96-148.02,20.76c-21.27,2.14-39.07,8.24-57.73,15.57c-0.87,0.61-1.74,1.22-3.04,1.53
	c-0.43,0.31-0.87,0.61-1.3,0.92c-10.42,3.97-18.23,9.77-27.35,15.27c-0.87,0.92-1.74,1.83-2.6,2.75c-3.04,2.14-5.21,4.58-7.81,7.02
	c-1.3,1.53-2.6,3.05-3.91,4.58c-14.76,19.24-19.1,39.69-23.01,61.07c-1.74,8.55,0.04,17.46-3.47,25.65
	c-4.24,9.89,0.81,21.32-0.87,29.01c-1.41,6.48-3.9,22.41-3.37,28.14"/>
<rect x="683.45" y="214.04" class="st3" width="13.66" height="10.13"/>
<rect x="737.34" y="312.71" class="st3" width="11.81" height="11.42"/>
<rect x="724.05" y="337.12" class="st3" width="9.6" height="5.19"/>
<rect x="670.9" y="361.78" class="st3" width="35.07" height="7.01"/>
<rect x="669.42" y="338.67" class="st3" width="41.34" height="5.97"/>
<polygon class="st3" points="529.74,92.45 500.92,79.33 509.74,69.74 538.56,82.86 "/>
<rect x="571.23" y="109.14" class="st3" width="10.34" height="65.95"/>
<rect x="529.89" y="109.4" class="st3" width="10.34" height="65.69"/>
<rect x="486.33" y="109.4" class="st3" width="8.12" height="63.1"/>
<rect x="444.62" y="109.92" class="st3" width="6.28" height="64.39"/>
<rect x="362.68" y="162.63" class="st3" width="46.88" height="8.57"/>
<rect x="312.84" y="109.4" class="st3" width="8.86" height="65.17"/>
<rect x="274.82" y="108.62" class="st3" width="5.54" height="66.73"/>
<polygon class="st3" points="323.96,62.94 310.74,65.37 303.57,46.02 316.79,43.6 "/>
<rect x="185.86" y="62.4" class="st3" width="71.24" height="8.57"/>
<rect x="260.43" y="84.73" class="st3" width="16.61" height="7.27"/>
<rect x="106.5" y="82.65" class="st3" width="76.04" height="5.71"/>
<rect x="232.37" y="107.32" class="st3" width="8.86" height="70.11"/>
<rect x="192.88" y="110.7" class="st3" width="5.91" height="66.21"/>
<rect x="108.35" y="123.68" class="st3" width="20.3" height="5.45"/>
<rect x="108.35" y="139.78" class="st3" width="43.19" height="7.01"/>
<rect x="116.47" y="128.87" class="st3" width="7.01" height="12.2"/>
<rect x="66.27" y="124.2" class="st3" width="11.81" height="8.57"/>
<rect x="61.47" y="154.58" class="st3" width="9.6" height="8.57"/>
<rect x="77.71" y="95.9" class="st3" width="9.23" height="16.62"/>
<ellipse class="st3" cx="377.99" cy="131.34" rx="30.08" ry="10.52"/>
<rect x="367.84" y="63.18" class="st3" width="29.53" height="30.38"/>
<rect x="464.92" y="80.32" class="st3" width="7.38" height="18.44"/>
<rect x="443.88" y="49.68" class="st3" width="8.49" height="18.18"/>
<polygon class="st3" points="378.21,40.26 333.44,46.97 330.9,38.59 375.67,31.88 "/>
<rect x="584.52" y="200.28" class="st3" width="11.81" height="46.74"/>
<rect x="559.05" y="201.84" class="st3" width="7.38" height="42.84"/>
<rect x="502.57" y="206.51" class="st3" width="20.3" height="9.61"/>
<rect x="504.79" y="220.79" class="st3" width="29.16" height="54.79"/>
<rect x="488.92" y="279.99" class="st3" width="26.95" height="8.83"/>
<rect x="527.68" y="290.64" class="st3" width="20.3" height="13.5"/>
<rect x="558.31" y="273.24" class="st3" width="6.28" height="22.33"/>
<rect x="588.58" y="274.02" class="st3" width="6.64" height="21.55"/>
<rect x="546.5" y="293.75" class="st3" width="48.72" height="9.35"/>
<rect x="323.55" y="195.08" class="st3" width="31.74" height="5.45"/>
<rect x="323.55" y="229.88" class="st3" width="5.54" height="13.76"/>
<rect x="302.14" y="205.99" class="st3" width="9.23" height="14.28"/>
<rect x="283.31" y="207.03" class="st3" width="9.97" height="34.79"/>
<rect x="266.33" y="226.76" class="st3" width="7.01" height="16.1"/>
<rect x="272.24" y="231.44" class="st3" width="12.92" height="5.97"/>
<rect x="217.61" y="208.59" class="st3" width="11.07" height="36.09"/>
<rect x="203.95" y="226.5" class="st3" width="6.28" height="17.14"/>
<rect x="208.01" y="231.18" class="st3" width="11.07" height="6.49"/>
<rect x="270.76" y="196.9" class="st3" width="6.28" height="7.79"/>
<rect x="253.41" y="202.1" class="st3" width="7.38" height="4.15"/>
<rect x="255.63" y="215.34" class="st3" width="5.17" height="7.01"/>
<rect x="231.63" y="206.77" class="st3" width="12.92" height="17.92"/>
<rect x="223.51" y="214.56" class="st3" width="11.07" height="4.41"/>
<rect x="464.92" y="299.21" class="st3" width="12.18" height="9.61"/>
<rect x="511.06" y="295.05" class="st3" width="5.17" height="11.42"/>
<rect x="557.57" y="329.33" class="st3" width="9.97" height="41.29"/>
<rect x="586.37" y="335.82" class="st3" width="9.23" height="43.62"/>
<rect x="455.7" y="315.3" class="st3" width="23.99" height="7.01"/>
<rect x="406.6" y="315.04" class="st3" width="29.16" height="7.53"/>
<rect x="407.71" y="334" class="st3" width="27.68" height="6.75"/>
<rect x="421.37" y="321.8" class="st3" width="5.54" height="14.28"/>
<rect x="350.49" y="302.32" class="st3" width="9.23" height="35.05"/>
<rect x="329.82" y="319.2" class="st3" width="7.75" height="14.54"/>
<rect x="358.25" y="359.19" class="st3" width="30.64" height="7.01"/>
<rect x="388.15" y="365.68" class="st3" width="29.16" height="6.75"/>
<rect x="433.92" y="389.31" class="st3" width="10.34" height="13.24"/>
<rect x="453.48" y="390.34" class="st3" width="15.87" height="10.65"/>
<rect x="459.76" y="410.34" class="st3" width="33.59" height="10.65"/>
<rect x="274.45" y="267.27" class="st3" width="30.64" height="7.53"/>
<rect x="244.55" y="262.85" class="st3" width="33.22" height="8.57"/>
<rect x="315.06" y="266.49" class="st3" width="8.12" height="4.41"/>
<rect x="90.63" y="196.9" class="st3" width="27.32" height="6.75"/>
<rect x="116.47" y="199.89" class="st3" width="27.32" height="6.75"/>
<rect x="142.31" y="203.78" class="st3" width="27.32" height="6.75"/>
<rect x="53.72" y="190.15" class="st3" width="11.07" height="7.27"/>
<rect x="55.93" y="201.58" class="st3" width="12.55" height="8.05"/>
<rect x="83.25" y="216.9" class="st3" width="9.6" height="10.39"/>
<rect x="130.49" y="240" class="st3" width="25.47" height="9.87"/>
<rect x="100.59" y="233.77" class="st3" width="12.55" height="7.27"/>
<rect x="104.65" y="240.26" class="st3" width="12.18" height="9.09"/>
<rect x="78.45" y="234.81" class="st3" width="8.12" height="11.17"/>
<rect x="188.08" y="233.51" class="st3" width="7.38" height="7.01"/>
<rect x="187.34" y="214.56" class="st3" width="7.01" height="7.53"/>
<rect x="204.32" y="197.68" class="st3" width="8.12" height="5.71"/>
<rect x="253.78" y="230.92" class="st3" width="6.28" height="5.97"/>
<polygon class="st3" points="342.47,278.27 349.09,279.89 390.63,196.03 384.01,194.41 "/>
<polygon class="st3" points="389.9,281.77 396.53,283.39 438.06,199.54 431.44,197.91 "/>
<polygon class="st3" points="443.06,283.59 449.68,285.21 491.22,201.35 484.6,199.73 "/>
<polygon class="st3" points="484.37,458.65 490.08,461.51 563.35,389.2 557.64,386.34 "/>
<polygon class="st3" points="523.25,473.19 528.96,476.06 602.23,403.74 596.52,400.88 "/>
<polygon class="st3" points="569.51,477.69 575.23,480.56 648.5,408.24 642.79,405.38 "/>
<rect x="499.25" y="539.39" class="st3" width="25.59" height="13.5"/>
<rect x="494.82" y="527.27" class="st3" width="27.07" height="9"/>
<rect x="496.3" y="512.73" class="st3" width="11.81" height="16.27"/>
<rect x="464.31" y="491.96" class="st3" width="22.64" height="10.39"/>
<rect x="470.71" y="479.49" class="st3" width="11.32" height="14.19"/>
<rect x="441.67" y="478.11" class="st3" width="13.29" height="16.19"/>
<rect x="389.5" y="420.64" class="st3" width="18.7" height="22.85"/>
<rect x="379.66" y="396.4" class="st3" width="26.58" height="23.2"/>
<polygon class="st3" points="451.63,490.97 445.38,494.27 389.99,442.35 396.24,439.06 "/>
<rect x="285.49" y="295.89" class="st3" width="13.29" height="37.27"/>
<rect x="269.57" y="308.01" class="st3" width="16.24" height="12.12"/>
<rect x="245.29" y="291.39" class="st3" width="8.04" height="9.35"/>
<rect x="250.71" y="300.27" class="st3" width="10.34" height="7.73"/>
<polygon class="st3" points="231.79,290.69 151.91,262.95 157.9,254.41 237.78,282.15 "/>
<rect x="104.53" y="168.43" class="st3" width="8.12" height="6.23"/>
<rect x="131.6" y="155.79" class="st3" width="26.33" height="4.33"/>
<rect x="140.21" y="145.58" class="st3" width="7.14" height="11.94"/>
<rect x="636.57" y="218.11" class="st3" width="9.84" height="45.35"/>
<rect x="639.52" y="293.58" class="st3" width="12.8" height="8.31"/>
<polygon class="st3" points="789.22,288.3 809.2,272.54 800.39,267.01 780.4,282.77 "/>
<g>
	<g>
		<path class="st3" d="M8.62,242.91c2.64,9.14,11.81,9.92,19.82,10.03c10.4,0.15,20.58,2.68,30.27,6.35
			c9.94,3.76,19.11,8.85,28.01,14.56c9.02,5.78,18.62,10.83,27.77,16.45c37.15,22.82,74.05,46.07,110.69,69.71
			c9.06,5.85,18.1,11.71,27.14,17.6c4.61,3.01,9.27,5.96,13.83,9.04c4.43,2.99,8.16,6.76,12.61,9.79
			c17.72,12.02,35.39,24.11,52.92,36.39c34.26,23.99,67.95,48.79,100.53,75.03c9.16,7.38,18.01,14.93,26.24,23.36
			c3.88,3.98,7.84,7.96,10.97,12.56c3.29,4.83,6.51,9.71,10.31,14.16c3.41,3.99,7.69,7.31,12.55,9.36
			c5.34,2.25,11.16,1.69,16.83,1.91c12.18,0.48,24.34,1.6,36.55,1.12c7.7-0.3,7.74-12.3,0-12c-10.36,0.4-20.68-0.33-31.02-0.86
			c-4.82-0.25-9.85,0.06-14.63-0.46c-5.14-0.56-9.21-4.41-12.37-8.23c-3.07-3.72-5.63-7.84-8.36-11.8
			c-2.96-4.3-6.45-8.07-10.04-11.85c-6.71-7.06-13.78-13.76-21.33-19.91c-31.64-25.8-64.31-50.3-97.61-73.91
			c-16.98-12.04-34.1-23.86-51.3-35.59c-4.19-2.86-8.39-5.71-12.58-8.56c-4.24-2.88-7.85-6.31-11.96-9.33
			c-8.74-6.42-18.23-11.99-27.32-17.89c-35.22-22.87-70.66-45.39-106.35-67.51c-10.29-6.38-20.6-12.72-30.93-19.04
			c-9.66-5.91-19.4-12.06-29.42-17.3c-9.9-5.17-20.33-9.66-31.2-12.35c-5.36-1.33-10.86-2.21-16.37-2.61
			c-1.94-0.14-11.95,1.08-12.67-1.41C18.06,232.31,6.47,235.46,8.62,242.91L8.62,242.91z"/>
	</g>
</g>
<g>
	<g>
		<path class="st3" d="M550.81,569.98c20.78-5.9,39.7-16.59,57.46-28.69c17.96-12.23,34.87-25.96,51.14-40.34
			c34.51-30.5,67.17-63.18,100.43-95.02c19.55-18.71,39.1-37.43,58.65-56.14c5.59-5.35-2.9-13.83-8.49-8.49
			c-33.85,32.41-67.71,64.82-101.56,97.22c-31.47,30.13-62.58,61.16-98.04,86.67c-19.26,13.85-39.79,26.69-62.78,33.22
			C540.2,560.52,543.35,572.1,550.81,569.98L550.81,569.98z"/>
	</g>
</g>
<g>
	<g>
		<path class="st3" d="M838.1,327.38c13.09-8.86,20.13-22.62,26.49-36.65c3.16-6.98-7.17-13.09-10.36-6.06
			c-5.37,11.84-11.05,24.8-22.18,32.34C825.69,321.33,831.68,331.73,838.1,327.38L838.1,327.38z"/>
	</g>
</g>
</svg>
