<?xml version="1.0" encoding="utf-8"?>
<!-- Generator: Adobe Illustrator 23.1.0, SVG Export Plug-In . SVG Version: 6.00 Build 0)  -->
<svg version="1.1" id="Слой_1" xmlns="http://www.w3.org/2000/svg" xmlns:xlink="http://www.w3.org/1999/xlink" x="0px" y="0px"
	 viewBox="0 0 878.74 566.93" style="enable-background:new 0 0 878.74 566.93;" xml:space="preserve">
<style type="text/css">
	.st0{fill:none;stroke:#EF7B2E;stroke-width:23;stroke-miterlimit:10;}
	.st1{fill:none;stroke:#EF7B2E;stroke-width:10;stroke-miterlimit:10;}
	.st2{fill:#575757;}
	.st3{fill:none;stroke:#575757;stroke-width:11;stroke-miterlimit:10;}
</style>
<path class="st0" d="M835.94,203.97c-0.53-0.36-1.24-1.09-1.96-0.73c-2.15,1.45-3.59,2.9-5.74,4.36c-0.72,0.36-1.08,0.36-1.79,0.73
	c-2.51,1.82-4.67,3.63-7.18,5.08c-11.85,6.9-21.9,14.52-33.74,21.78c-10.77,6.17-20.1,12.71-30.87,19.24
	c-34.1,21.06-63.9,41.02-98,62.08c-0.72,0.73-1.44,1.45-2.51,2.18c-35.18,21.78-65.69,42.48-100.87,64.26
	c-1.44,1.09-2.51,2.18-3.95,2.9c-3.95,2.18-7.9,3.99-11.49,6.9c-20.46,17.79-38.41,35.22-61.39,50.1
	c-10.77,6.53-20.82,11.98-32.67,15.61c-9.33,2.54-18.67,4.36-28,5.08c-42,8.71-82.21,17.43-125.64,25.78
	c-15.44,3.27-29.44,5.81-44.51,6.9c-1.08,0-1.79,0.73-2.87,0.73c-7.9,0-15.79,1.45-23.69,1.82c-6.1,0-12.56,0-18.67,0
	c-3.59-0.36-6.82-0.36-10.41-0.73c-2.87-0.36-5.74-0.73-8.62-1.09c-6.46-1.09-12.21-2.54-18.67-3.99
	c-6.46-1.82-12.21-4.36-18.31-6.9c-5.74-2.54-11.13-5.45-16.87-9.08c-1.08-0.73-2.51-1.09-3.59-1.82
	c-16.51-10.53-30.51-21.78-43.44-35.94c-4.67-5.45-9.33-10.53-14.36-15.97c-0.72-1.09-1.44-1.82-2.15-2.9
	c-12.56-13.43-22.62-27.59-34.46-42.11c-0.36-0.36-1.08-0.73-1.44-1.09c-1.44-1.82-2.87-3.99-4.31-5.81
	c-2.15-2.18-3.95-4.36-5.74-6.9c-0.72-1.09-1.79-1.82-2.5-2.71"/>
<polyline class="st1" points="857.46,148.91 833.21,175.3 826.5,195.67 794.75,169.12 745.29,174.68 707.44,192.59 665.31,225.31 
	"/>
<polyline class="st1" points="705,131.46 647,171.59 610.36,221.61 434.53,309.91 398.51,336.46 263.58,363.01 271.51,489.59 "/>
<path class="st1" d="M217.17,494.53l-8.77-114.75c-0.22-2.88,1.71-5.48,4.51-6.07l50.67-10.7"/>
<path class="st1" d="M40.98,261.18c4.91,2.32,14.22,7.66,18.78,18.06c4.03,9.18,2.43,17.9-0.25,31.49
	c-3.84,19.47-8.85,22.63-10.06,36.35c-1.22,13.75,2.59,24.49,4.64,30.3c4.14,11.68,12.18,24.64,57.55,56.66
	c34.49,24.34,52.12,36.58,71.11,40.1c25.47,4.72,50.9,0.12,52.51-0.19c16.22-3.06,24.01-7.56,42.21-9.53
	c14.87-1.61,25.48-3.39,37.24,0.92c6.48,2.38,14.81,11.62,18.03,14.13"/>
<polygon class="st2" points="92.73,272.19 61.21,244.56 67.07,237.71 98.6,265.35 "/>
<polygon class="st2" points="72.64,252.47 63.59,263.86 70.88,269.79 79.94,258.4 "/>
<polygon class="st2" points="85.18,291.13 81.52,296.07 69.13,286.7 72.79,281.76 "/>
<polygon class="st2" points="87.76,326.46 78.26,336.07 75.1,332.87 84.6,323.26 "/>
<polygon class="st2" points="90.66,356.78 78.91,342.04 91.74,331.57 103.49,346.32 "/>
<polygon class="st2" points="104.96,374.82 100.73,377.29 93.71,364.99 97.94,362.52 "/>
<polygon class="st2" points="86.86,386.69 97.07,400.04 114.14,386.69 103.93,373.34 "/>
<rect x="148.39" y="416.52" class="st2" width="5.9" height="27.79"/>
<rect x="156.73" y="424.55" class="st2" width="17.71" height="7.62"/>
<rect x="171.59" y="419.41" class="st2" width="29.92" height="10.5"/>
<rect x="194.99" y="381.95" class="st2" width="8.95" height="37.87"/>
<rect x="192.75" y="355.81" class="st2" width="10.79" height="27.17"/>
<rect x="163.45" y="345.93" class="st2" width="34.19" height="10.91"/>
<rect x="142.28" y="351.9" class="st2" width="22.39" height="7.82"/>
<rect x="174.84" y="369.8" class="st2" width="5.29" height="5.76"/>
<rect x="176.27" y="395.12" class="st2" width="8.95" height="10.5"/>
<rect x="137.1" y="359.6" class="st2" width="10.79" height="14"/>
<rect x="138.41" y="372.07" class="st2" width="7.33" height="18.94"/>
<rect x="149.61" y="293.44" class="st2" width="17.71" height="21.2"/>
<rect x="153.88" y="284.8" class="st2" width="13.23" height="8.85"/>
<rect x="163.85" y="278.83" class="st2" width="10.38" height="9.67"/>
<rect x="151.24" y="252.48" class="st2" width="5.09" height="14.61"/>
<rect x="164.87" y="253.31" class="st2" width="26.05" height="10.7"/>
<rect x="183.08" y="264.06" class="st2" width="7.94" height="20.17"/>
<rect x="179.93" y="283.36" class="st2" width="11.19" height="21.61"/>
<rect x="201.91" y="277.18" class="st2" width="8.75" height="8.23"/>
<rect x="201.71" y="318.14" class="st2" width="6.11" height="12.14"/>
<rect x="217.17" y="322.67" class="st2" width="5.09" height="9.47"/>
<rect x="219.62" y="344.49" class="st2" width="5.09" height="17.7"/>
<rect x="214.12" y="362.39" class="st2" width="6.11" height="3.91"/>
<rect x="233.45" y="315.26" class="st2" width="14.45" height="9.06"/>
<rect x="237.12" y="347.98" class="st2" width="13.84" height="11.53"/>
<rect x="238.3" y="322.87" class="st2" width="6.35" height="26.14"/>
<rect x="267.98" y="342.7" class="st2" width="13.7" height="7.27"/>
<rect x="265.54" y="302.09" class="st2" width="7.73" height="41.3"/>
<rect x="272.46" y="300.03" class="st2" width="34.05" height="5.35"/>
<rect x="305.3" y="284.93" class="st2" width="4.07" height="20.45"/>
<rect x="296.61" y="321.57" class="st2" width="3.8" height="4.67"/>
<rect x="306.65" y="318.28" class="st2" width="3.8" height="4.12"/>
<rect x="317.24" y="317.18" class="st2" width="3.39" height="4.39"/>
<rect x="324.7" y="313.34" class="st2" width="4.61" height="8.37"/>
<polygon class="st2" points="382.12,197.3 374.6,209.3 356.89,197.96 364.41,185.96 "/>
<polygon class="st2" points="413.56,274.52 396.84,283.04 381,251.23 397.73,242.72 "/>
<polygon class="st2" points="405.15,257.41 414.85,251.75 406.81,237.67 397.12,243.33 "/>
<rect x="318.73" y="248.16" class="st2" width="40.91" height="8.44"/>
<rect x="313.64" y="252.48" class="st2" width="7.94" height="13.58"/>
<rect x="330.53" y="273.48" class="st2" width="3.26" height="9.67"/>
<rect x="356.99" y="254.33" class="st2" width="10.38" height="67.51"/>
<rect x="344.57" y="318.55" class="st2" width="19.33" height="10.91"/>
<polygon class="st2" points="361.12,226.14 366.31,230.92 375.14,221.09 369.95,216.32 "/>
<polygon class="st2" points="352.72,218.73 357.92,223.51 366.75,213.68 361.55,208.91 "/>
<polygon class="st2" points="342.65,212.86 347.85,217.64 356.67,207.82 351.48,203.04 "/>
<rect x="449.79" y="210.15" class="st2" width="4.61" height="6.31"/>
<polygon class="st2" points="449.92,255.25 437.76,262.35 426.67,242.92 438.83,235.82 "/>
<polygon class="st2" points="439.39,261.08 420,272.4 415.83,265.09 435.22,253.77 "/>
<polygon class="st2" points="398.25,317.49 458.97,279.04 452.49,268.57 391.77,307.02 "/>
<rect x="482.56" y="242.81" class="st2" width="5.9" height="13.38"/>
<rect x="492.12" y="240.34" class="st2" width="7.94" height="11.11"/>
<rect x="502.7" y="233.55" class="st2" width="7.53" height="15.64"/>
<rect x="494.56" y="255.57" class="st2" width="8.75" height="16.05"/>
<polygon class="st2" points="497.81,209.15 463.44,229.22 468.32,237.77 502.69,217.71 "/>
<polygon class="st2" points="488.88,268.74 480.28,274.24 455.48,234.58 464.08,229.08 "/>
<polygon class="st2" points="535.98,185.71 523.46,193.01 520.92,188.56 533.43,181.25 "/>
<rect x="243.83" y="395.74" class="st2" width="9.57" height="18.94"/>
<rect x="222.26" y="396.76" class="st2" width="7.12" height="25.93"/>
<rect x="226.74" y="411.79" class="st2" width="22.59" height="9.88"/>
<rect x="226.13" y="438.75" class="st2" width="28.08" height="11.32"/>
<rect x="227.76" y="435.05" class="st2" width="7.94" height="3.91"/>
<polygon class="st2" points="376.66,386.81 326.3,401.84 323.88,393.54 374.24,378.52 "/>
<polygon class="st2" points="322.83,408.48 275.53,415.27 274.33,406.71 321.63,399.92 "/>
<rect x="274.56" y="375.67" class="st2" width="8.24" height="31.18"/>
<rect x="322.19" y="368.57" class="st2" width="3.66" height="10.19"/>
<rect x="367.47" y="368.88" class="st2" width="7.02" height="12.35"/>
<polygon class="st2" points="493.15,383.73 473.13,391.27 467.48,375.94 487.51,368.4 "/>
<polygon class="st2" points="529.22,327.68 498.7,341.09 484.84,308.81 515.35,295.4 "/>
<polygon class="st2" points="445.37,323.51 414.75,346.54 420.94,354.96 451.56,331.94 "/>
<polygon class="st2" points="563.2,297.38 555.12,302.94 548.03,292.38 556.11,286.83 "/>
<polygon class="st2" points="584.82,276.53 592.01,269.25 586.25,263.43 579.06,270.7 "/>
<polygon class="st2" points="552.42,195.25 518.93,214.8 522.59,221.22 556.08,201.66 "/>
<polygon class="st2" points="686.75,235.94 679.85,242.34 667.48,228.68 674.38,222.28 "/>
<polygon class="st2" points="568.15,220.42 562.36,224.26 546.75,200.16 552.54,196.32 "/>
<polygon class="st2" points="617.26,189.4 609.51,195.41 589.22,168.6 596.98,162.6 "/>
<polygon class="st2" points="625.46,157.02 618.06,161.35 611.55,149.94 618.95,145.62 "/>
<polygon class="st2" points="599.24,176.34 581.86,192.51 573.87,183.72 591.25,167.56 "/>
<polygon class="st2" points="634.83,115.24 663.61,100.73 660.21,93.82 631.43,108.33 "/>
<polygon class="st2" points="654.8,136.61 639.76,107.86 633.01,111.47 648.05,140.22 "/>
<polygon class="st2" points="697.98,123.45 694.12,126 678.1,101.18 681.96,98.63 "/>
<rect x="669.72" y="123.16" class="st2" width="6.51" height="7.55"/>
<polygon class="st2" points="788.1,103.37 797.16,96.72 793.19,91.19 784.13,97.84 "/>
<polygon class="st2" points="800.42,121.13 795.07,124.88 778.99,101.33 784.35,97.59 "/>
<polygon class="st2" points="762,123.56 753.01,134.92 747.89,128.56 756.88,117.2 "/>
<polygon class="st2" points="778.51,143.4 783.62,136.65 761.68,110.72 756.57,117.46 "/>
<polygon class="st2" points="727.7,132.01 718.71,143.36 713.59,137 722.58,125.65 "/>
<polygon class="st2" points="744.21,151.85 749.33,145.1 727.38,119.16 722.27,125.91 "/>
<polygon class="st2" points="622.13,222.83 587.86,245.81 596.97,259.7 631.24,236.72 "/>
<polygon class="st2" points="596.44,257.79 606.9,273.24 622.86,262.2 612.4,246.75 "/>
<polygon class="st2" points="609.37,297.78 602.41,303.14 597.72,296.93 604.68,291.56 "/>
<polygon class="st2" points="665.92,285.28 654.9,293.75 645.17,280.81 656.18,272.34 "/>
<polygon class="st2" points="695.06,214.89 700.24,220.13 696.21,224.21 691.03,218.97 "/>
<polygon class="st2" points="702.79,206.56 707.97,211.8 703.95,215.87 698.76,210.63 "/>
<polygon class="st2" points="687.73,218.7 692.91,223.94 688.89,228.02 683.7,222.78 "/>
<rect x="680.78" y="252.07" class="st2" width="6.11" height="7.62"/>
<rect x="385.48" y="403.63" class="st2" width="6.11" height="37.05"/>
<rect x="363.23" y="432.85" class="st2" width="23.2" height="7.41"/>
<rect x="434.73" y="385.65" class="st2" width="5.7" height="3.98"/>
<rect x="434.87" y="396.9" class="st2" width="32.43" height="6.59"/>
<rect x="386.7" y="354.57" class="st2" width="10.38" height="5.15"/>
<rect x="278.84" y="426.4" class="st2" width="6.11" height="25.73"/>
<rect x="299.19" y="442.87" class="st2" width="5.29" height="7.62"/>
<rect x="288.61" y="428.46" class="st2" width="20.35" height="11.11"/>
<rect x="323.2" y="419.82" class="st2" width="10.18" height="15.64"/>
<rect x="318.32" y="443.08" class="st2" width="32.36" height="8.64"/>
<rect x="346" y="409.11" class="st2" width="10.18" height="20.38"/>
<ellipse class="st2" cx="429.95" cy="414.16" rx="5.39" ry="6.07"/>
<polygon class="st2" points="487.18,345.65 479.82,351.04 475.76,345.38 483.12,339.98 "/>
<polygon class="st2" points="497.05,374.74 523.16,354.84 519.08,349.36 492.97,369.26 "/>
<rect x="543.95" y="340.51" class="st2" width="4.61" height="10.84"/>
<polygon class="st2" points="584.54,305.37 549.53,331.57 553.97,337.64 588.98,311.43 "/>
<polygon class="st2" points="608.12,323.8 644.69,295.25 640.09,289.22 603.52,317.77 "/>
<polygon class="st2" points="546.31,303.14 530.29,311.7 526.87,305.15 542.88,296.59 "/>
<polygon class="st2" points="666.9,251.89 646.76,265.12 638.89,252.86 659.03,239.64 "/>
<polygon class="st2" points="723.01,226.51 744.87,211.07 740.1,204.15 718.24,219.59 "/>
<polygon class="st2" points="776.7,211.29 795.85,197.68 785.32,182.53 766.17,196.14 "/>
<polygon class="st2" points="763.34,189.59 755.43,194.66 750.86,187.36 758.76,182.29 "/>
<polygon class="st2" points="739.86,185.59 726.73,192.63 728.54,196.08 741.67,189.05 "/>
<polygon class="st2" points="708.59,260.67 735.32,240.8 727.25,229.69 700.52,249.55 "/>
<polygon class="st2" points="546.73,166.59 586.95,138.93 580.99,130.08 540.78,157.75 "/>
<rect x="579.43" y="113.14" class="st2" width="7.33" height="25.11"/>
<rect x="400.64" y="205.25" class="st2" width="32.66" height="6.17"/>
<rect x="585.47" y="199.86" class="st2" width="4.88" height="5.21"/>
<rect x="560.37" y="169.26" class="st2" width="2.85" height="3.7"/>
<rect x="540.29" y="219.76" class="st2" width="10.18" height="9.06"/>
<rect x="704.79" y="149.98" class="st2" width="12.62" height="12.14"/>
<rect x="690.55" y="164.6" class="st2" width="13.43" height="10.09"/>
<path class="st3" d="M861.22,75.07c-21.54,3.02-40.73,0.2-46.53-5.42c-8.2-7.92-7.74-18.11-17.91-23.05
	c-7.59-3.68-15.52-1.74-20.96-0.41c-15.78,3.86-19.36,13.3-34.39,20.58c-10.91,5.28-19.87,5.57-29.92,6.38
	c-9.85,0.79-53.55,8.66-140.93,24.39c-4.36,0.78-81.98,15.13-93.11,35.2c-1.28,2.31-4.86,10.42-12.52,12.97
	c-4.81,1.6-8.34,0.04-14.65,3.09c-4.36,2.1-4.74,3.84-7.33,4.01c-5.21,0.35-8.74-6.32-13.13-11.42
	c-9.32-10.83-23.03-15.21-29.92-15.75c-12.59-0.98-23.49,9.23-34.19,21.61c-38.68,44.75-40.17,77.8-77.54,116.7
	c-9.99,10.4-19.63,18.19-32.97,20.99c-14.95,3.14-33.66-0.16-47.01-11.11c-11.98-9.83-9.46-17.48-24.42-29.64
	c-7.67-6.23-15.62-12.69-26.25-12.97c-12.4-0.32-15.26,8.13-39.07,17.91c-13.54,5.56-20.31,8.34-26.86,6.17
	c-13.21-4.36-13.17-20.92-25.64-23.46c-8.32-1.69-15.91,4.14-20.15,7.41c-11.1,8.55-18.11,23.68-17.1,38.28
	c1.15,16.58,11.7,18.68,10.99,33.96c-0.5,10.74-6.15,19.27-12.21,28.4c-9.85,14.86-17.03,16.87-17.71,25.32
	c-0.8,10.09,8.56,18.4,13.43,22.85c37.3,34.04,24.33,35.97,58.61,63.6c18.87,15.21,45.87,36.97,82.42,47.55
	c22.16,6.41,38.79,6.09,121.5-6.79c88.94-13.85,134-21.04,163.01-33.96c43.37-19.31,74.65-40.57,93.65-58.08"/>
<g>
	<g>
		<path class="st2" d="M852.12,79.01c1.31,12.09,0.69,24.3,1.65,36.42c0.98,12.3,2.29,24.58,3.46,36.86c0.73,7.62,12.74,7.7,12,0
			c-1.18-12.28-2.49-24.56-3.46-36.86c-0.96-12.12-0.34-24.33-1.65-36.42C863.3,71.41,851.29,71.33,852.12,79.01L852.12,79.01z"/>
	</g>
</g>
<g>
	<g>
		<path class="st2" d="M858.38,150.46c-2.59,14.34-6.93,28.28-11.8,42c-2.23,6.27-4.93,12.03-9.66,16.83
			c-4.38,4.44-9.55,7.89-14.76,11.26c-24.9,16.15-50.08,31.88-74.61,48.58c-6.35,4.32-0.35,14.72,6.06,10.36
			c25.87-17.61,52.75-33.71,78.66-51.24c11.36-7.69,19.7-16.38,24.69-29.33c5.62-14.6,10.21-29.87,12.99-45.27
			C871.32,146.1,859.76,142.86,858.38,150.46L858.38,150.46z"/>
	</g>
</g>
<g>
	<g>
		<path class="st2" d="M542.76,406.34c68.26-45.67,137.99-89.36,209.55-129.69c6.73-3.79,0.69-14.16-6.06-10.36
			c-71.56,40.33-141.28,84.03-209.55,129.69C530.32,400.25,536.32,410.65,542.76,406.34L542.76,406.34z"/>
	</g>
</g>
<g>
	<g>
		<path class="st2" d="M752.16,280.63c0.43-0.21,0.86-0.42,1.29-0.62c0.4-0.31,0.81-0.63,1.21-0.94c0.59-0.54,1-1.19,1.24-1.93
			c0.27-0.47,0.41-0.97,0.41-1.51c0.18-0.8,0.14-1.6-0.11-2.39c-0.2-0.48-0.4-0.96-0.6-1.43c-0.31-0.4-0.63-0.81-0.94-1.21
			c-0.54-0.59-1.19-1-1.93-1.24c-0.72-0.38-1.49-0.55-2.31-0.52c-0.29-0.04-0.58,0-0.86,0.1c-0.28,0-0.56,0.04-0.83,0.12
			c-0.54,0.12-1.06,0.35-1.52,0.65c-0.4,0.31-0.81,0.63-1.21,0.94c-0.03,0.02-0.06,0.05-0.08,0.07c-0.05,0.05-0.1,0.11-0.15,0.17
			c-0.21,0.24-0.43,0.47-0.64,0.71c-0.59,0.54-1,1.19-1.24,1.93c-0.38,0.72-0.55,1.49-0.52,2.31c-0.03,0.83,0.14,1.6,0.52,2.31
			c0.24,0.74,0.66,1.39,1.24,1.93c0.4,0.31,0.81,0.63,1.21,0.94c0.94,0.54,1.95,0.82,3.03,0.82c0.53-0.07,1.06-0.14,1.6-0.21
			c1.02-0.29,1.9-0.8,2.65-1.54c0.28-0.31,0.55-0.68,0.88-0.95c-0.4,0.31-0.81,0.63-1.21,0.94c0.02-0.01,0.04-0.02,0.06-0.04
			c-0.48,0.2-0.96,0.4-1.43,0.6c0.02-0.01,0.04-0.01,0.06-0.02c-0.53,0.07-1.06,0.14-1.6,0.21c0.02,0,0.04,0,0.07,0.01
			c-1.01-3.73-2.02-7.45-3.03-11.18c-0.43,0.21-0.86,0.41-1.29,0.62c-0.7,0.38-1.26,0.89-1.68,1.55c-0.53,0.58-0.89,1.26-1.07,2.04
			c-0.25,0.8-0.29,1.6-0.11,2.39c0.04,0.8,0.27,1.54,0.71,2.23c0.31,0.4,0.63,0.81,0.94,1.21c0.75,0.74,1.63,1.26,2.65,1.54
			c0.53,0.07,1.06,0.14,1.6,0.21C750.22,281.44,751.22,281.17,752.16,280.63L752.16,280.63z"/>
	</g>
</g>
</svg>
